<svg xmlns="http://www.w3.org/2000/svg" xmlns:xlink="http://www.w3.org/1999/xlink" width="850" height="464" viewBox="0 0 850 464">
  <defs>
    <clipPath id="clip-path">
      <circle id="Ellipse_10" data-name="Ellipse 10" cx="12.5" cy="12.5" r="12.5" transform="translate(63 18)" fill="#243553"/>
    </clipPath>
    <clipPath id="clip-path-2">
      <rect id="Rectangle_16" data-name="Rectangle 16" width="25" height="25" transform="translate(63 18)" fill="#243553"/>
    </clipPath>
    <clipPath id="clip-path-3">
      <circle id="Ellipse_4" data-name="Ellipse 4" cx="12.5" cy="12.5" r="12.5" transform="translate(60 15)" fill="#243553" stroke="#707070" stroke-width="1"/>
    </clipPath>
  </defs>
  <g id="Group_106" data-name="Group 106" transform="translate(-2408 -2865)">
    <g id="Group_90" data-name="Group 90" transform="translate(2050 2599)">
      <g id="Group_7" data-name="Group 7" transform="translate(618 327)">
        <g id="Rectangle_14" data-name="Rectangle 14" transform="translate(0 29)" fill="none" stroke="#fff" stroke-width="1">
          <rect width="150" height="70" rx="10" stroke="none"/>
          <rect x="0.5" y="0.5" width="149" height="69" rx="9.5" fill="none"/>
        </g>
        <g id="Group_6" data-name="Group 6" transform="translate(41 -2)">
          <g id="Ellipse_2" data-name="Ellipse 2" transform="translate(12 10)" fill="#fff" stroke="#fff" stroke-width="1">
            <circle cx="22.5" cy="22.5" r="22.5" stroke="none"/>
            <circle cx="22.5" cy="22.5" r="22" fill="none"/>
          </g>
        </g>
        <g id="Mask_Group_16" data-name="Mask Group 16" clip-path="url(#clip-path)">
          <path id="magnifying-glass-solid" d="M20.31,10.155a10.13,10.13,0,0,1-1.953,5.99l6.181,6.186a1.564,1.564,0,0,1-2.212,2.212l-6.181-6.186a10.156,10.156,0,1,1,4.164-8.2Zm-10.155,7.03a7.03,7.03,0,1,0-7.03-7.03A7.03,7.03,0,0,0,10.155,17.185Z" transform="translate(63.002 18)" fill="#243553"/>
        </g>
      </g>
      <text id="Discover" transform="translate(661.135 392.75)" fill="#fff" font-size="14" font-family="AcuminPro-Medium, Acumin Pro" font-weight="500"><tspan x="6.721" y="10">Discover</tspan></text>
    </g>
    <g id="Group_91" data-name="Group 91" transform="translate(2256 2600)">
      <g id="Group_7-2" data-name="Group 7" transform="translate(618 327)">
        <g id="Rectangle_14-2" data-name="Rectangle 14" transform="translate(0 29)" fill="none" stroke="#fff" stroke-width="1">
          <rect width="150" height="70" rx="10" stroke="none"/>
          <rect x="0.5" y="0.5" width="149" height="69" rx="9.5" fill="none"/>
        </g>
        <g id="Group_6-2" data-name="Group 6" transform="translate(41 -2)">
          <g id="Ellipse_2-2" data-name="Ellipse 2" transform="translate(12 10)" fill="#fff" stroke="#fff" stroke-width="1">
            <circle cx="22.5" cy="22.5" r="22.5" stroke="none"/>
            <circle cx="22.5" cy="22.5" r="22" fill="none"/>
          </g>
        </g>
        <g id="Mask_Group_15" data-name="Mask Group 15" clip-path="url(#clip-path-2)">
          <path id="message-code-solid" d="M0,0H25V20.313H14.844L7.813,25V20.313H0ZM10.6,7.861l.83-.83L9.766,5.376l-.83.83L5.811,9.331l-.83.83.83.83,3.125,3.125.83.83,1.655-1.665-.83-.83L8.3,10.156l2.295-2.295ZM16.064,6.2l-.83-.83-1.655,1.66.83.83L16.7,10.156l-2.295,2.295-.83.83,1.655,1.655.83-.83,3.125-3.125.83-.83-.83-.83L16.064,6.2Z" transform="translate(63 18)" fill="#243553"/>
        </g>
      </g>
      <text id="Continuous_feedback" data-name="Continuous feedback" transform="translate(649.5 386)" fill="#fff" font-size="14" font-family="AcuminPro-Medium, Acumin Pro" font-weight="500"><tspan x="7.828" y="10">Continuous </tspan><tspan x="14.989" y="26">feedback</tspan></text>
    </g>
    <g id="Group_92" data-name="Group 92" transform="translate(2490 2530)">
      <g id="Group_7-3" data-name="Group 7" transform="translate(618 327)">
        <g id="Rectangle_14-3" data-name="Rectangle 14" transform="translate(0 29)" fill="none" stroke="#fff" stroke-width="1">
          <rect width="150" height="70" rx="10" stroke="none"/>
          <rect x="0.5" y="0.5" width="149" height="69" rx="9.5" fill="none"/>
        </g>
        <g id="Group_6-3" data-name="Group 6" transform="translate(41 -2)">
          <g id="Ellipse_2-3" data-name="Ellipse 2" transform="translate(12 10)" fill="#fff" stroke="#fff" stroke-width="1">
            <circle cx="22.5" cy="22.5" r="22.5" stroke="none"/>
            <circle cx="22.5" cy="22.5" r="22" fill="none"/>
          </g>
        </g>
        <g id="Mask_Group_9" data-name="Mask Group 9" transform="translate(3 3)" clip-path="url(#clip-path-3)">
          <path id="eye-solid" d="M12.5,1.667a12.212,12.212,0,0,0-8.359,3.5,17.2,17.2,0,0,0-4.032,5.69,1.38,1.38,0,0,0,0,1.068,17.2,17.2,0,0,0,4.032,5.69,12.212,12.212,0,0,0,8.359,3.5,12.212,12.212,0,0,0,8.359-3.5,17.326,17.326,0,0,0,4.036-5.69,1.38,1.38,0,0,0,0-1.068,17.282,17.282,0,0,0-4.036-5.69A12.212,12.212,0,0,0,12.5,1.667ZM6.25,11.388A6.249,6.249,0,1,1,12.5,17.637,6.249,6.249,0,0,1,6.25,11.388ZM12.5,8.61a2.78,2.78,0,0,1-2.778,2.778,2.818,2.818,0,0,1-.881-.143.37.37,0,0,0-.508.321,4.026,4.026,0,0,0,.139.9,4.167,4.167,0,1,0,4.205-5.243.368.368,0,0,0-.321.508,2.818,2.818,0,0,1,.143.881Z" transform="translate(59.999 16.112)" fill="#243553" stroke="#707070" stroke-width="0.052"/>
        </g>
      </g>
      <text id="Observe" transform="translate(659.135 395.75)" fill="#fff" font-size="14" font-family="AcuminPro-Medium, Acumin Pro" font-weight="500"><tspan x="7.722" y="10">Observe</tspan></text>
    </g>
    <g id="Group_93" data-name="Group 93" transform="translate(1790 2531)">
      <g id="Group_7-4" data-name="Group 7" transform="translate(618 327)">
        <g id="Rectangle_14-4" data-name="Rectangle 14" transform="translate(0 29)" fill="none" stroke="#fff" stroke-width="1">
          <rect width="150" height="70" rx="10" stroke="none"/>
          <rect x="0.5" y="0.5" width="149" height="69" rx="9.5" fill="none"/>
        </g>
        <g id="Group_6-4" data-name="Group 6" transform="translate(41 -2)">
          <g id="Ellipse_2-4" data-name="Ellipse 2" transform="translate(12 10)" fill="#fff" stroke="#fff" stroke-width="1">
            <circle cx="22.5" cy="22.5" r="22.5" stroke="none"/>
            <circle cx="22.5" cy="22.5" r="22" fill="none"/>
          </g>
        </g>
        <g id="Mask_Group_10" data-name="Mask Group 10" clip-path="url(#clip-path)">
          <path id="pen-nib-solid" d="M18.03.9,15.289,3.646,21.45,9.807l2.741-2.741a2.753,2.753,0,0,0,0-3.9L21.928.9a2.753,2.753,0,0,0-3.9,0ZM14.074,4.655l-.453.138L6.53,6.919A3.147,3.147,0,0,0,4.448,8.936l-4.36,13a1.571,1.571,0,0,0,.359,1.594l7.559-7.554A2.363,2.363,0,1,1,9.118,17.09L1.56,24.649a1.563,1.563,0,0,0,1.594.359l13.006-4.36a3.157,3.157,0,0,0,2.018-2.082L20.3,11.476l.138-.453Z" transform="translate(62.997 17.908)" fill="#243553"/>
        </g>
      </g>
      <text id="Plan" transform="translate(675.135 393.75)" fill="#fff" font-size="14" font-family="AcuminPro-Medium, Acumin Pro" font-weight="500"><tspan x="4.252" y="10">Plan</tspan></text>
    </g>
    <g id="Group_94" data-name="Group 94" transform="translate(1790 2749)">
      <g id="Group_7-5" data-name="Group 7" transform="translate(618 327)">
        <g id="Rectangle_14-5" data-name="Rectangle 14" transform="translate(0 29)" fill="none" stroke="#fff" stroke-width="1">
          <rect width="150" height="70" rx="10" stroke="none"/>
          <rect x="0.5" y="0.5" width="149" height="69" rx="9.5" fill="none"/>
        </g>
        <g id="Group_6-5" data-name="Group 6" transform="translate(41 -2)">
          <g id="Ellipse_2-5" data-name="Ellipse 2" transform="translate(12 10)" fill="#fff" stroke="#fff" stroke-width="1">
            <circle cx="22.5" cy="22.5" r="22.5" stroke="none"/>
            <circle cx="22.5" cy="22.5" r="22" fill="none"/>
          </g>
        </g>
        <g id="Mask_Group_11" data-name="Mask Group 11" clip-path="url(#clip-path)">
          <path id="code-solid" d="M15.345.047A1.251,1.251,0,0,0,13.8.906l-5,17.5A1.251,1.251,0,0,0,11.2,19.1l5-17.5A1.251,1.251,0,0,0,15.345.047Zm3.149,4.692a1.252,1.252,0,0,0,0,1.77L21.982,10,18.49,13.493a1.251,1.251,0,0,0,1.77,1.77l4.375-4.375a1.252,1.252,0,0,0,0-1.77L20.259,4.743a1.252,1.252,0,0,0-1.77,0Zm-11.981,0a1.252,1.252,0,0,0-1.77,0L.367,9.114a1.252,1.252,0,0,0,0,1.77l4.375,4.375a1.251,1.251,0,1,0,1.77-1.77L3.02,10,6.512,6.508a1.252,1.252,0,0,0,0-1.77Z" transform="translate(62.999 20.499)" fill="#243553"/>
        </g>
      </g>
      <text id="Build" transform="translate(672.135 395.75)" fill="#fff" font-size="14" font-family="AcuminPro-Medium, Acumin Pro" font-weight="500"><tspan x="5.096" y="10">Build</tspan></text>
    </g>
    <g id="Group_95" data-name="Group 95" transform="translate(2050 2903)">
      <g id="Group_7-6" data-name="Group 7" transform="translate(618 327)">
        <g id="Rectangle_14-6" data-name="Rectangle 14" transform="translate(0 29)" fill="none" stroke="#fff" stroke-width="1">
          <rect width="150" height="70" rx="10" stroke="none"/>
          <rect x="0.5" y="0.5" width="149" height="69" rx="9.5" fill="none"/>
        </g>
        <g id="Group_6-6" data-name="Group 6" transform="translate(41 -2)">
          <g id="Ellipse_2-6" data-name="Ellipse 2" transform="translate(12 10)" fill="#fff" stroke="#fff" stroke-width="1">
            <circle cx="22.5" cy="22.5" r="22.5" stroke="none"/>
            <circle cx="22.5" cy="22.5" r="22" fill="none"/>
          </g>
        </g>
        <g id="Mask_Group_12" data-name="Mask Group 12" clip-path="url(#clip-path)">
          <path id="gear-solid" d="M23.535,8.136a1.106,1.106,0,0,1-.313,1.2L21.713,10.71a1.733,1.733,0,0,0-.532,1.363c0,.142.01.283.01.43s0,.288-.01.43a1.7,1.7,0,0,0,.532,1.363l1.509,1.372a1.106,1.106,0,0,1,.313,1.2,12.106,12.106,0,0,1-.772,1.675l-.23.4a12.427,12.427,0,0,1-1.079,1.524,1.106,1.106,0,0,1-1.2.332l-1.939-.615a1.722,1.722,0,0,0-1.45.225,8.486,8.486,0,0,1-.737.425,1.74,1.74,0,0,0-.918,1.143l-.435,1.988a1.1,1.1,0,0,1-.889.869,12.687,12.687,0,0,1-4.151,0,1.1,1.1,0,0,1-.889-.869l-.435-1.988A1.726,1.726,0,0,0,7.5,20.829c-.254-.132-.5-.273-.737-.425a1.72,1.72,0,0,0-1.45-.225l-1.934.62a1.115,1.115,0,0,1-1.2-.332A12.427,12.427,0,0,1,1.1,18.944l-.23-.4A12.105,12.105,0,0,1,.1,16.873a1.106,1.106,0,0,1,.313-1.2L1.919,14.3a1.733,1.733,0,0,0,.532-1.363c0-.142-.01-.283-.01-.43s0-.288.01-.43a1.7,1.7,0,0,0-.532-1.363L.41,9.338A1.106,1.106,0,0,1,.1,8.136,12.106,12.106,0,0,1,.869,6.461l.23-.4A12.427,12.427,0,0,1,2.178,4.542a1.106,1.106,0,0,1,1.2-.332l1.939.615A1.722,1.722,0,0,0,6.764,4.6,8.485,8.485,0,0,1,7.5,4.176,1.74,1.74,0,0,0,8.42,3.033l.435-1.988A1.1,1.1,0,0,1,9.743.176,12.107,12.107,0,0,1,11.819,0a12.619,12.619,0,0,1,2.076.171,1.1,1.1,0,0,1,.889.869l.435,1.988a1.713,1.713,0,0,0,.918,1.143c.254.132.5.273.737.425a1.737,1.737,0,0,0,1.45.225L20.263,4.2a1.115,1.115,0,0,1,1.2.332,12.427,12.427,0,0,1,1.079,1.524l.23.4a12.105,12.105,0,0,1,.772,1.675ZM11.819,16.409A3.907,3.907,0,1,0,7.912,12.5,3.907,3.907,0,0,0,11.819,16.409Z" transform="translate(63.684 18)" fill="#243553"/>
        </g>
      </g>
      <text id="Test" transform="translate(679.135 393.75)" fill="#fff" font-size="14" font-family="AcuminPro-Medium, Acumin Pro" font-weight="500"><tspan x="0" y="10">Test</tspan></text>
    </g>
    <g id="Group_96" data-name="Group 96" transform="translate(2256 2903)">
      <g id="Group_7-7" data-name="Group 7" transform="translate(618 327)">
        <g id="Rectangle_14-7" data-name="Rectangle 14" transform="translate(0 29)" fill="none" stroke="#fff" stroke-width="1">
          <rect width="150" height="70" rx="10" stroke="none"/>
          <rect x="0.5" y="0.5" width="149" height="69" rx="9.5" fill="none"/>
        </g>
        <g id="Group_6-7" data-name="Group 6" transform="translate(41 -2)">
          <g id="Ellipse_2-7" data-name="Ellipse 2" transform="translate(12 10)" fill="#fff" stroke="#fff" stroke-width="1">
            <circle cx="22.5" cy="22.5" r="22.5" stroke="none"/>
            <circle cx="22.5" cy="22.5" r="22" fill="none"/>
          </g>
        </g>
        <g id="Mask_Group_13" data-name="Mask Group 13" clip-path="url(#clip-path)">
          <path id="paper-plane-solid" d="M0,14.063,25,0,21.875,23.438l-8.6-3.687L10.156,25l-2.344-.781V18.75L18.75,7.813,6.494,16.846Z" transform="translate(63 18)" fill="#243553"/>
        </g>
      </g>
      <text id="Deploy" transform="translate(666.135 393.75)" fill="#fff" font-size="14" font-family="AcuminPro-Medium, Acumin Pro" font-weight="500"><tspan x="5.188" y="10">Deploy</tspan></text>
    </g>
    <g id="Group_97" data-name="Group 97" transform="translate(2490 2749)">
      <g id="Group_7-8" data-name="Group 7" transform="translate(618 327)">
        <g id="Rectangle_14-8" data-name="Rectangle 14" transform="translate(0 29)" fill="none" stroke="#fff" stroke-width="1">
          <rect width="150" height="70" rx="10" stroke="none"/>
          <rect x="0.5" y="0.5" width="149" height="69" rx="9.5" fill="none"/>
        </g>
        <g id="Group_6-8" data-name="Group 6" transform="translate(41 -2)">
          <g id="Ellipse_2-8" data-name="Ellipse 2" transform="translate(12 10)" fill="#fff" stroke="#fff" stroke-width="1">
            <circle cx="22.5" cy="22.5" r="22.5" stroke="none"/>
            <circle cx="22.5" cy="22.5" r="22" fill="none"/>
          </g>
        </g>
        <g id="Mask_Group_14" data-name="Mask Group 14" clip-path="url(#clip-path)">
          <path id="wrench-solid" d="M17.188,15.625A7.81,7.81,0,0,0,25,7.813a7.892,7.892,0,0,0-.3-2.158A.7.7,0,0,0,23.511,5.4l-3.75,3.75a.784.784,0,0,1-.552.229h-2.8a.784.784,0,0,1-.781-.781v-2.8a.784.784,0,0,1,.229-.552l3.75-3.75A.7.7,0,0,0,19.346.3,7.892,7.892,0,0,0,17.188,0,7.82,7.82,0,0,0,9.839,10.474L.972,19.341a3.315,3.315,0,1,0,4.688,4.688l8.867-8.867A7.759,7.759,0,0,0,17.188,15.625Zm-13.281,4.3a1.172,1.172,0,1,1-1.172,1.172A1.172,1.172,0,0,1,3.906,19.922Z" transform="translate(63 18)" fill="#243553"/>
        </g>
      </g>
      <text id="Operate" transform="translate(659.135 393.75)" fill="#fff" font-size="14" font-family="AcuminPro-Medium, Acumin Pro" font-weight="500"><tspan x="8.954" y="10">Operate</tspan></text>
    </g>
    <g id="Group_98" data-name="Group 98" transform="translate(2056.5 2487)">
      <path id="Polygon_1" data-name="Polygon 1" d="M7.5,0,15,20H0Z" transform="translate(522.5 806) rotate(90)" fill="#f7dd95"/>
      <g id="Group_25" data-name="Group 25" transform="translate(426.5 688)">
        <line id="Line_3" data-name="Line 3" y2="125.5" fill="none" stroke="#f7dd95" stroke-width="1"/>
        <line id="Line_4" data-name="Line 4" x2="185.5" transform="translate(0 125.5)" fill="none" stroke="#f7dd95" stroke-width="1"/>
      </g>
    </g>
    <g id="Group_99" data-name="Group 99" transform="translate(2050 2487)">
      <path id="Polygon_1-2" data-name="Polygon 1" d="M7.5,0,15,20H0Z" transform="translate(972.75 438.34) rotate(-90)" fill="#f7dd95"/>
      <g id="Group_25-2" data-name="Group 25" transform="translate(1058 431) rotate(90)">
        <line id="Line_3-2" data-name="Line 3" y2="159.25" fill="none" stroke="#f7dd95" stroke-width="1"/>
        <line id="Line_4-2" data-name="Line 4" x2="17.25" transform="translate(0 159.25)" fill="none" stroke="#f7dd95" stroke-width="1"/>
      </g>
    </g>
    <g id="Group_100" data-name="Group 100" transform="translate(2050 2487)">
      <path id="Polygon_1-3" data-name="Polygon 1" d="M7.5,0,15,20H0Z" transform="translate(598 438) rotate(-90)" fill="#f7dd95"/>
      <g id="Group_25-3" data-name="Group 25" transform="translate(693 448) rotate(180)">
        <line id="Line_3-3" data-name="Line 3" y2="17" fill="none" stroke="#f7dd95" stroke-width="1"/>
        <line id="Line_4-3" data-name="Line 4" x2="185.5" transform="translate(0 17)" fill="none" stroke="#f7dd95" stroke-width="1"/>
      </g>
    </g>
    <g id="Group_101" data-name="Group 101" transform="translate(2050 2487)">
      <path id="Polygon_1-4" data-name="Polygon 1" d="M7.5,0,15,20H0Z" transform="translate(807 800) rotate(90)" fill="#f7dd95"/>
      <line id="Line_4-4" data-name="Line 4" x2="56" transform="translate(768.5 807.5)" fill="none" stroke="#f7dd95" stroke-width="1"/>
    </g>
    <g id="Group_102" data-name="Group 102" transform="translate(3642.182 3798) rotate(-180)">
      <path id="Polygon_1-5" data-name="Polygon 1" d="M7.5,0,15,20H0Z" transform="translate(807 800) rotate(90)" fill="#f7dd95"/>
      <line id="Line_4-5" data-name="Line 4" x2="56" transform="translate(768.5 807.5)" fill="none" stroke="#f7dd95" stroke-width="1"/>
    </g>
    <g id="Group_103" data-name="Group 103" transform="translate(2374.141 3852.675) rotate(-90)">
      <path id="Polygon_1-6" data-name="Polygon 1" d="M9.471,0l9.471,20H0Z" transform="translate(844.045 800) rotate(90)" fill="#f7dd95"/>
      <line id="Line_4-6" data-name="Line 4" x2="128.088" transform="translate(768.5 809.471)" fill="none" stroke="#f7dd95" stroke-width="1"/>
    </g>
    <g id="Group_104" data-name="Group 104" transform="translate(3292.471 2187.412) rotate(90)">
      <path id="Polygon_1-7" data-name="Polygon 1" d="M9.471,0l9.471,20H0Z" transform="translate(844.045 800) rotate(90)" fill="#f7dd95"/>
      <line id="Line_4-7" data-name="Line 4" x2="128.088" transform="translate(768.5 809.471)" fill="none" stroke="#f7dd95" stroke-width="1"/>
    </g>
    <g id="Group_105" data-name="Group 105" transform="translate(2334.917 3725.603) rotate(-90)">
      <path id="Polygon_1-8" data-name="Polygon 1" d="M7.5,0,15,20H0Z" transform="translate(494.012 843.166) rotate(90)" fill="#f7dd95"/>
      <g id="Group_25-4" data-name="Group 25" transform="translate(426.5 688)">
        <line id="Line_3-4" data-name="Line 3" y2="162.666" fill="none" stroke="#f7dd95" stroke-width="1"/>
        <line id="Line_4-8" data-name="Line 4" x2="124.103" transform="translate(0 162.666)" fill="none" stroke="#f7dd95" stroke-width="1"/>
      </g>
    </g>
  </g>
</svg>
