<svg xmlns="http://www.w3.org/2000/svg" viewBox="0 0 500 500"><defs><style>.cls-1{fill:#f7dd95;}</style></defs><g id="Layer_2" data-name="Layer 2"><g id="Layer_1-2" data-name="Layer 1"><path class="cls-1" d="M287,318.5a37.94,37.94,0,0,1-20.18,7.88,46.25,46.25,0,0,1-22-3.85,69.83,69.83,0,0,1-21.28-14.47,98.44,98.44,0,0,1-17.9-24,112.62,112.62,0,0,1-10.93-29.34,101.18,101.18,0,0,1-2.26-29.08,74,74,0,0,1,6.17-25.51A48.3,48.3,0,0,1,213,181.5a37.94,37.94,0,0,1,20.18-7.88,46.25,46.25,0,0,1,22,3.85,69.83,69.83,0,0,1,21.28,14.47,98.44,98.44,0,0,1,17.9,24,112.62,112.62,0,0,1,10.93,29.34,101.18,101.18,0,0,1,2.26,29.08,74,74,0,0,1-6.17,25.51A48.3,48.3,0,0,1,287,318.5m.15.28c24.61-18.89,27.91-65,7.37-103s-57.13-53.46-81.73-34.57-27.91,65-7.37,103,57.13,53.46,81.73,34.57Z"/><path class="cls-1" d="M280.88,322.5a44,44,0,0,1-22.82,5.36,53.41,53.41,0,0,1-23.27-6.5,74.63,74.63,0,0,1-21-17,96.8,96.8,0,0,1-16.14-26,105.72,105.72,0,0,1-7.9-30.46,93.66,93.66,0,0,1,1.41-29.13,70.62,70.62,0,0,1,10-24.57,50.53,50.53,0,0,1,18-16.75,44,44,0,0,1,22.82-5.36,53.41,53.41,0,0,1,23.27,6.5,74.63,74.63,0,0,1,21,17,96.8,96.8,0,0,1,16.14,26,105.72,105.72,0,0,1,7.9,30.46,93.66,93.66,0,0,1-1.41,29.13,70.62,70.62,0,0,1-10,24.57,50.53,50.53,0,0,1-18,16.75m.12.3c29.05-15.76,38.72-61.12,21.6-101.32s-54.55-60-83.6-44.28-38.72,61.12-21.6,101.32,54.55,60,83.6,44.28Z"/><path class="cls-1" d="M273.71,325.73a51.84,51.84,0,0,1-25.33,2.54,61.09,61.09,0,0,1-24.24-9.3,77.73,77.73,0,0,1-20.45-19.4,93.13,93.13,0,0,1-14-27.76,97.4,97.4,0,0,1-4.49-31.19,86.71,86.71,0,0,1,5.38-28.74,69.5,69.5,0,0,1,14.08-23.17,55.15,55.15,0,0,1,21.6-14.44,51.84,51.84,0,0,1,25.33-2.54,61.09,61.09,0,0,1,24.24,9.3,77.73,77.73,0,0,1,20.45,19.4,93.13,93.13,0,0,1,14,27.76,97.4,97.4,0,0,1,4.49,31.19,86.71,86.71,0,0,1-5.38,28.74,69.5,69.5,0,0,1-14.08,23.17,55.15,55.15,0,0,1-21.6,14.44m.09.3c33.43-12.09,49.87-55.94,36.72-97.93S259.62,161.87,226.2,174s-49.87,55.94-36.72,97.93,50.9,66.23,84.32,54.13Z"/><path class="cls-1" d="M265.55,328.05a61.12,61.12,0,0,1-27.66-.56A68.6,68.6,0,0,1,213,315.31a79.89,79.89,0,0,1-19.49-21.75,88.72,88.72,0,0,1-11.39-29.26,89.76,89.76,0,0,1-.72-31.5A82,82,0,0,1,191,204.92a70.48,70.48,0,0,1,18.26-21.27A61.87,61.87,0,0,1,234.45,172a61.12,61.12,0,0,1,27.66.56A68.6,68.6,0,0,1,287,184.69a79.89,79.89,0,0,1,19.49,21.75,88.72,88.72,0,0,1,11.39,29.26,89.76,89.76,0,0,1,.72,31.5A82,82,0,0,1,309,295.08a70.48,70.48,0,0,1-18.26,21.27,61.87,61.87,0,0,1-25.21,11.7m.06.32c37.66-7.94,61.21-49.45,52.59-92.73s-46.15-71.94-83.81-64-61.21,49.45-52.59,92.73,46.15,71.94,83.81,64Z"/><path class="cls-1" d="M256.43,329.37a71.71,71.71,0,0,1-29.76-3.94,75.24,75.24,0,0,1-25.28-15.13,80,80,0,0,1-18.15-23.95,84.06,84.06,0,0,1-5-61.79,79.32,79.32,0,0,1,14.07-26.49,74.6,74.6,0,0,1,22.51-18.89,71.88,71.88,0,0,1,58.52-4.61,75.24,75.24,0,0,1,25.28,15.13,80,80,0,0,1,18.15,24,84.06,84.06,0,0,1,5,61.79,79.32,79.32,0,0,1-14.07,26.49,74.6,74.6,0,0,1-22.51,18.89,71.42,71.42,0,0,1-28.76,8.55m0,.31c41.68-3.28,72.58-41.61,69-85.62s-40.26-77-81.94-73.74-72.58,41.61-69,85.62,40.26,77,81.94,73.74Z"/><path class="cls-1" d="M246.43,329.56a83.47,83.47,0,0,1-31.6-7.53,81.31,81.31,0,0,1-25.26-18.1,78.81,78.81,0,0,1-16.41-26A77.78,77.78,0,0,1,175.94,216a80,80,0,0,1,18.68-24.58,82.6,82.6,0,0,1,26.8-16A84.46,84.46,0,0,1,285.17,178a81.31,81.31,0,0,1,25.26,18.1,78.81,78.81,0,0,1,16.41,26A77.78,77.78,0,0,1,324.06,284a80,80,0,0,1-18.68,24.58,82.6,82.6,0,0,1-26.8,16,83.83,83.83,0,0,1-32.15,5m0,.32c45.41,1.82,83.82-32.47,85.8-76.58S299,172,253.59,170.12s-83.82,32.47-85.8,76.58,33.22,81.35,78.62,83.18Z"/><path class="cls-1" d="M235.61,328.53a95.54,95.54,0,0,1-33.09-11.33,86.19,86.19,0,0,1-24.86-21,76.2,76.2,0,0,1-14.26-27.8,71.06,71.06,0,0,1-1.31-31.61,74.14,74.14,0,0,1,12.51-29.53A83.26,83.26,0,0,1,198,185.11a93.48,93.48,0,0,1,31-12.62,98.75,98.75,0,0,1,35.35-1,95.54,95.54,0,0,1,33.09,11.33,86.19,86.19,0,0,1,24.86,21,76.2,76.2,0,0,1,14.26,27.8,71.06,71.06,0,0,1,1.31,31.61,74.14,74.14,0,0,1-12.51,29.53A83.26,83.26,0,0,1,302,314.89a93.48,93.48,0,0,1-31,12.62,98.75,98.75,0,0,1-35.35,1m-.06.31c48.74,7.35,94.73-22,102.71-65.55s-25.06-84.79-73.81-92.13-94.73,22-102.71,65.55,25.06,84.79,73.81,92.13Z"/><path class="cls-1" d="M224.07,326.19a107.94,107.94,0,0,1-34.2-15.27,89.63,89.63,0,0,1-24-23.91,72.55,72.55,0,0,1-11.7-29.33,65.47,65.47,0,0,1,2.78-31.54,72.74,72.74,0,0,1,17.4-27.78,90.48,90.48,0,0,1,28.19-19.1,108.81,108.81,0,0,1,35.15-8.75,116.34,116.34,0,0,1,38.27,3.3,107.94,107.94,0,0,1,34.2,15.27,89.63,89.63,0,0,1,24,23.91,72.54,72.54,0,0,1,11.7,29.34,65.44,65.44,0,0,1-2.78,31.53,72.74,72.74,0,0,1-17.4,27.78,90.48,90.48,0,0,1-28.19,19.1,108.81,108.81,0,0,1-35.15,8.75,116.34,116.34,0,0,1-38.27-3.3m-.1.31c51.61,13.22,105.11-10.3,119.49-52.55S327.65,186.73,276,173.5s-105.11,10.3-119.49,52.55S172.35,313.27,224,326.5Z"/><path class="cls-1" d="M211.93,322.46a119.79,119.79,0,0,1-34.87-19.32,90.85,90.85,0,0,1-22.75-26.67,67.93,67.93,0,0,1-8.75-30.53,61.18,61.18,0,0,1,7.18-31,74.19,74.19,0,0,1,22.46-25.46A101.83,101.83,0,0,1,208.14,174a127.88,127.88,0,0,1,39.08-4.4,135.89,135.89,0,0,1,40.85,7.94,119.79,119.79,0,0,1,34.87,19.32,90.85,90.85,0,0,1,22.75,26.67,67.93,67.93,0,0,1,8.75,30.53,61.18,61.18,0,0,1-7.18,31,74.19,74.19,0,0,1-22.46,25.46A101.83,101.83,0,0,1,291.86,326a127.88,127.88,0,0,1-39.08,4.4,135.89,135.89,0,0,1-40.85-7.94m-.15.29c53.93,19.42,114.77,2.59,135.88-37.59s-5.51-88.49-59.44-107.91-114.77-2.59-135.88,37.59,5.51,88.49,59.44,107.91Z"/><path class="cls-1" d="M199.33,317.28a130,130,0,0,1-35.06-23.43,90.69,90.69,0,0,1-21-29.24,63,63,0,0,1-5.39-31.37,58.23,58.23,0,0,1,11.84-29.85c6.85-9.09,16.13-16.67,27.61-22.53a117.21,117.21,0,0,1,37.6-11.4,151,151,0,0,1,42.74.4,156.8,156.8,0,0,1,43,12.86,130,130,0,0,1,35.06,23.43,90.69,90.69,0,0,1,21,29.24,63,63,0,0,1,5.39,31.37,58.23,58.23,0,0,1-11.84,29.85c-6.85,9.09-16.13,16.67-27.61,22.53a117.21,117.21,0,0,1-37.6,11.4,151,151,0,0,1-42.74-.4,156.8,156.8,0,0,1-43-12.86m-.2.27C254.74,343.4,322.6,334.11,350.7,296.8s5.79-88.5-49.83-114.35S177.4,165.89,149.3,203.2s-5.79,88.5,49.83,114.35Z"/><path class="cls-1" d="M186.42,310.61a138.82,138.82,0,0,1-34.71-27.53c-9-10-15.28-20.65-18.81-31.58s-4.09-21.64-1.66-31.8c2.52-10.53,8.15-20,16.73-28.19s19.61-14.57,32.77-19a137.12,137.12,0,0,1,42.07-6.73,181.21,181.21,0,0,1,90.77,23.6,138.82,138.82,0,0,1,34.71,27.53c8.95,10,15.28,20.65,18.81,31.58s4.09,21.64,1.66,31.8c-2.52,10.53-8.15,20-16.73,28.19s-19.61,14.57-32.77,19a137.12,137.12,0,0,1-42.07,6.73,181.21,181.21,0,0,1-90.77-23.6m-.25.24c56.57,32.43,131,31.48,166.27-2.12s18-87.15-38.61-119.58-131-31.48-166.27,2.12-18,87.15,38.61,119.58Z"/><path class="cls-1" d="M173.38,302.41c-13.81-9.52-25.19-20.14-33.81-31.56-8.32-11-13.74-22.35-16.1-33.64s-1.55-22,2.42-31.76c4.11-10.14,11.44-18.86,21.78-25.94s23.09-12.07,37.87-14.86a162.38,162.38,0,0,1,46.28-1.55,207,207,0,0,1,48.95,11.17,199.94,199.94,0,0,1,45.85,23.32c13.81,9.52,25.19,20.14,33.81,31.56,8.32,11,13.74,22.35,16.1,33.64s1.55,22-2.42,31.76c-4.11,10.14-11.44,18.86-21.78,25.94s-23.09,12.07-37.87,14.86a162.38,162.38,0,0,1-46.28,1.55,207,207,0,0,1-49-11.17,199.94,199.94,0,0,1-45.85-23.32m-.31.21c56.74,39.08,137.18,47.21,179.67,18.15s30.93-84.3-25.81-123.39-137.18-47.21-179.67-18.15-30.93,84.3,25.81,123.39Z"/><path class="cls-1" d="M160.4,292.68c-13.64-11.13-24.51-23.05-32.3-35.44-7.52-12-11.86-23.86-12.92-35.35A50.24,50.24,0,0,1,122,190.66c5.77-9.56,14.84-17.33,26.93-23.09s26.5-9.17,42.82-10.14a191.41,191.41,0,0,1,50.14,4.1,237.36,237.36,0,0,1,51.32,17.06,218.61,218.61,0,0,1,46.38,28.73c13.64,11.13,24.51,23.05,32.3,35.44,7.52,12,11.86,23.86,12.92,35.35A50.24,50.24,0,0,1,378,309.34c-5.77,9.56-14.84,17.33-26.93,23.09s-26.5,9.17-42.82,10.14a191.41,191.41,0,0,1-50.14-4.1,237.36,237.36,0,0,1-51.32-17.06,218.61,218.61,0,0,1-46.38-28.73m-.36.17c56,45.71,141.74,63.58,191.42,39.91S396,252.86,340,207.15s-141.74-63.58-191.42-39.91S104,247.14,160,292.85Z"/><path class="cls-1" d="M147.68,281.44c-13.25-12.71-23.39-25.87-30.15-39.11-6.53-12.79-9.64-25.13-9.25-36.66a47.77,47.77,0,0,1,11.49-30.17c7.5-8.78,18.31-15.39,32.12-19.64S181.7,150,199.43,151A224.34,224.34,0,0,1,253,161.2a268.67,268.67,0,0,1,53.11,23.19,235,235,0,0,1,46.23,34.17c13.25,12.71,23.39,25.87,30.15,39.11,6.53,12.79,9.64,25.13,9.25,36.66a47.77,47.77,0,0,1-11.49,30.17c-7.5,8.78-18.31,15.39-32.12,19.64S318.3,350,300.57,349A224.34,224.34,0,0,1,247,338.8a268.67,268.67,0,0,1-53.11-23.19,235,235,0,0,1-46.23-34.17m-.41.13c54.4,52.19,144.49,80.38,201.23,62.94s58.63-73.88,4.23-126.08S208.24,138.05,151.5,155.49s-58.63,73.88-4.23,126.08Z"/><path class="cls-1" d="M135.45,268.74c-12.61-14.23-21.81-28.53-27.35-42.5-5.35-13.49-7.07-26.11-5.13-37.51a46.75,46.75,0,0,1,16.4-28.54c9.26-7.81,21.79-13.05,37.26-15.58s32.93-2.2,51.92,1A258.8,258.8,0,0,1,265,162.23a299.7,299.7,0,0,1,54.23,29.48,248.71,248.71,0,0,1,45.34,39.55c12.61,14.23,21.81,28.53,27.35,42.5,5.35,13.49,7.07,26.11,5.13,37.51a46.75,46.75,0,0,1-16.4,28.54c-9.26,7.81-21.79,13.05-37.26,15.58s-32.93,2.2-51.92-1A258.8,258.8,0,0,1,235,337.77a299.7,299.7,0,0,1-54.23-29.48,248.71,248.71,0,0,1-45.34-39.55m-.46.07c51.77,58.44,145.24,97.39,208.76,87s73-66.18,21.26-124.62-145.24-97.39-208.76-87-73,66.18-21.26,124.62Z"/><path class="cls-1" d="M123.93,254.64c-11.71-15.66-19.74-31-23.87-45.51-4-14-4.17-26.79-.56-37.86s10.83-19.94,21.47-26.33c11-6.62,25.23-10.3,42.25-10.92s35.83,1.83,55.89,7.31a294,294,0,0,1,58.67,23.38,326.42,326.42,0,0,1,54.61,35.87,257.29,257.29,0,0,1,43.68,44.78c11.71,15.66,19.74,31,23.87,45.51,4,14.05,4.17,26.79.56,37.86S389.67,348.67,379,355.06c-11,6.62-25.23,10.3-42.25,10.92s-35.83-1.83-55.89-7.31a294,294,0,0,1-58.67-23.38,326.42,326.42,0,0,1-54.61-35.87,257.29,257.29,0,0,1-43.68-44.78m-.51,0C171.54,319,267.22,369,337.12,366.45s87.57-56.79,39.46-121.1S232.78,131,162.88,133.55s-87.57,56.79-39.46,121.1Z"/><path class="cls-1" d="M113.38,239.24c-10.57-17-17.2-33.15-19.73-48.08-2.44-14.43-1-27.09,4.41-37.65S112.39,135,124.71,130c12.77-5.22,28.59-7.14,47-5.68s38.4,6.18,59.33,14.06a329.41,329.41,0,0,1,60.19,30.36A348.29,348.29,0,0,1,345.43,211c16.77,16.06,30.63,32.8,41.19,49.77s17.2,33.15,19.73,48.08c2.44,14.43.95,27.09-4.41,37.65S387.61,365,375.29,370c-12.77,5.22-28.59,7.14-47,5.68s-38.4-6.18-59.33-14.06a329.41,329.41,0,0,1-60.19-30.36A348.29,348.29,0,0,1,154.57,289c-16.77-16.06-30.63-32.8-41.19-49.77m-.55-.05c43.39,69.7,140,131,215.74,137s102-45.7,58.6-115.39-140-131-215.74-137-102,45.7-58.6,115.39Z"/><path class="cls-1" d="M104,222.67c-9.15-18.13-14.17-35-14.91-50.13-.72-14.61,2.56-27,9.74-36.83s17.9-16.58,31.87-20.09c14.46-3.63,31.79-3.6,51.5.09s40.61,10.82,62.14,21.19a374.29,374.29,0,0,1,113.75,86c16,18,28.7,36.29,37.85,54.42s14.17,35,14.91,50.13c.72,14.61-2.56,27-9.74,36.83s-17.9,16.58-31.87,20.09c-14.46,3.63-31.79,3.6-51.5-.09s-40.61-10.82-62.14-21.19a361.5,361.5,0,0,1-60.92-37.47,365,365,0,0,1-52.83-48.54c-16-18-28.7-36.29-37.85-54.42m-.59-.11C141,297,237.11,369.68,318.05,384.83s116.09-32.92,78.51-107.39S262.89,130.32,182,115.17,65.86,148.09,103.44,222.56Z"/><path class="cls-1" d="M96.14,205.08c-7.47-19.11-10.65-36.46-9.45-51.57C87.85,138.92,93,127,102.08,118.14s21.51-14.27,37.05-16c16.08-1.85,34.77.29,55.54,6.36s42.38,15.69,64.24,28.61a388.9,388.9,0,0,1,60.76,44.61,374.61,374.61,0,0,1,50.56,54.62c14.85,19.79,26.16,39.52,33.63,58.63s10.65,36.46,9.45,51.57c-1.16,14.59-6.34,26.49-15.39,35.37s-21.51,14.27-37.05,16.05c-16.08,1.85-34.77-.29-55.54-6.36S263,375.86,241.09,362.94a388.9,388.9,0,0,1-60.76-44.61,374.61,374.61,0,0,1-50.56-54.62c-14.85-19.79-26.16-39.52-33.63-58.63m-.62-.18c30.68,78.49,124.72,162.31,210,187.22s129.61-18.53,98.93-97-124.72-162.31-210-187.22-129.61,18.53-98.93,97Z"/><path class="cls-1" d="M90,186.67c-5.53-19.88-6.66-37.49-3.36-52.34,3.18-14.34,10.34-25.52,21.28-33.23S133,89.55,150,89.68c17.6.13,37.47,4.53,59.08,13.08S252.71,123.5,274.57,139a412,412,0,0,1,59.65,51.69,377.22,377.22,0,0,1,47.31,60.38c13.39,21.45,23,42.41,28.51,62.28s6.66,37.49,3.36,52.34c-3.18,14.34-10.34,25.52-21.28,33.23S367,410.45,350,410.32c-17.59-.13-37.47-4.53-59.08-13.08S247.29,376.5,225.43,361a412,412,0,0,1-59.65-51.69A377.22,377.22,0,0,1,118.47,249c-13.39-21.45-23-42.41-28.51-62.28m-.65-.26c22.71,81.65,113.05,176.3,201.8,211.42s142.28-2.6,119.58-84.24-113-176.3-201.8-211.42-142.28,2.6-119.58,84.24Z"/><path class="cls-1" d="M85.73,167.63c-3.33-20.4-2.22-38,3.3-52.35,5.34-13.85,14.55-24.07,27.37-30.39s28.61-8.4,46.93-6.21c19,2.28,39.83,9.07,62,20.19s44.35,25.9,65.89,43.93a425.94,425.94,0,0,1,57.5,58.58,372.89,372.89,0,0,1,43,65.69c11.61,22.92,19.18,44.89,22.51,65.3s2.22,38-3.3,52.35c-5.34,13.85-14.55,24.07-27.37,30.39s-28.61,8.4-46.93,6.21c-19-2.28-39.83-9.07-62-20.19s-44.35-25.9-65.89-43.93a425.94,425.94,0,0,1-57.5-58.58,372.89,372.89,0,0,1-43-65.69C96.63,210,89.06,188,85.73,167.63m-.66-.33c13.67,83.81,98.6,188.77,189.69,234.44s153.85,14.76,140.17-69S316.33,143.93,225.24,98.26,71.39,83.5,85.07,167.3Z"/><path class="cls-1" d="M83.68,148.23c-.89-20.66,2.65-38,10.51-51.56a58.11,58.11,0,0,1,33.55-26.83c14.66-4.71,32-4.86,51.45-.44C199.35,74,221,83.25,243.41,97a366.34,366.34,0,0,1,65.26,51.64,432.25,432.25,0,0,1,54.27,65.14c15.88,23.4,28.58,47.1,37.74,70.45,9.49,24.17,14.75,46.9,15.64,67.55s-2.65,38-10.51,51.56a58.11,58.11,0,0,1-33.55,26.83c-14.66,4.71-32,4.86-51.45.44C300.65,426,279,416.75,256.59,403a366.34,366.34,0,0,1-65.26-51.64,432.25,432.25,0,0,1-54.27-65.14c-15.88-23.4-28.58-47.1-37.74-70.45-9.49-24.17-14.75-46.9-15.64-67.55m-.67-.41c3.66,84.84,81.38,199.37,173.61,255.81S420.64,437,417,352.18,335.61,152.81,243.38,96.37,79.36,63,83,147.82Z"/><path class="cls-1" d="M84.05,128.72c1.78-20.61,7.89-37.4,18.16-49.9,9.93-12.07,23.3-19.66,39.75-22.54s35.15-.92,55.57,5.83c21.14,7,43.23,18.84,65.63,35.21a383.85,383.85,0,0,1,63.56,59.21,429.58,429.58,0,0,1,49.93,71.27C390.68,253,401.24,278,408,302.33c7,25.14,9.7,48.34,7.92,68.95s-7.89,37.4-18.16,49.9c-9.93,12.07-23.3,19.66-39.75,22.54s-35.15.92-55.57-5.83c-21.14-7-43.23-18.84-65.63-35.21a383.85,383.85,0,0,1-63.56-59.21,429.58,429.58,0,0,1-49.93-71.27C109.32,247,98.76,222,92,197.67c-7-25.14-9.7-48.34-7.92-68.95m-.67-.49C76.09,212.89,144.77,336,236.79,403.29s172.53,53.14,179.83-31.52S355.23,164,263.21,96.71,90.68,43.57,83.38,128.23Z"/><path class="cls-1" d="M87,109.4c4.65-20.25,13.46-36.16,26.2-47.32C125.54,51.31,141,45.42,159.1,44.56s38,3.37,59.18,12.56c21.89,9.52,44.14,24,66.14,42.95a393.46,393.46,0,0,1,60.73,66.51,419.88,419.88,0,0,1,44.43,76.82c11.8,26.69,19.87,52.86,24,77.79,4.26,25.82,4.06,49.17-.59,69.41s-13.46,36.16-26.2,47.32c-12.31,10.77-27.74,16.66-45.87,17.52s-38-3.37-59.18-12.56c-21.89-9.52-44.14-24-66.14-42.95a393.46,393.46,0,0,1-60.73-66.51,419.88,419.88,0,0,1-44.43-76.82c-11.8-26.69-19.87-52.86-24-77.79C82.18,153,82.38,129.64,87,109.4m-.66-.57C67.29,192,125.07,322.57,215.44,400.54s179.1,73.77,198.19-9.37S374.93,177.43,284.56,99.46s-179.1-73.77-198.19,9.37Z"/><path class="cls-1" d="M92.8,90.58c7.7-19.52,19.32-34.25,34.54-43.76,14.71-9.19,32.14-13.17,51.81-11.81s40.59,8,62.18,19.68C263.68,66.8,285.77,83.86,307,105.38a395,395,0,0,1,56.7,73.42,402.5,402.5,0,0,1,37.76,81.66c9.2,27.93,14.44,54.89,15.57,80.14,1.17,26.14-2.14,49.29-9.83,68.82s-19.32,34.25-34.54,43.76C358,462.37,340.52,466.35,320.85,465s-40.59-8-62.18-19.68c-22.35-12.11-44.44-29.17-65.67-50.69a395,395,0,0,1-56.7-73.42,402.5,402.5,0,0,1-37.76-81.66C89.34,211.61,84.1,184.65,83,159.4c-1.17-26.14,2.14-49.29,9.83-68.82m-.63-.64c-31.6,80.2,13.44,216.86,100.61,305.26s183.44,95.05,215.05,14.86S394.39,193.2,307.22,104.8s-183.44-95-215-14.86Z"/><path class="cls-1" d="M101.53,72.61C112.41,54.17,126.9,41,144.58,33.38,161.67,26.05,181,24.23,202,28s42.74,12.87,64.48,27.11C289,69.84,310.6,89.46,330.65,113.4a390.36,390.36,0,0,1,51.45,79.78A379.44,379.44,0,0,1,412,278.84c6.23,28.84,8.31,56.24,6.19,81.44-2.2,26.09-8.84,48.67-19.73,67.11S373.1,459,355.42,466.62C338.33,474,319,475.77,298,472s-42.74-12.87-64.48-27.11C211,430.16,189.4,410.54,169.35,386.6a390.36,390.36,0,0,1-51.45-79.78A379.44,379.44,0,0,1,88,221.16c-6.23-28.84-8.31-56.24-6.19-81.44,2.2-26.09,8.84-48.67,19.73-67.11m-.6-.71C56.21,147.64,86.7,288.78,169,387.15s185.32,116.69,230,41S413.3,211.22,331,112.85,145.65-3.84,100.93,71.9Z"/><path class="cls-1" d="M113.31,55.84c14.19-17,31.57-28.31,51.66-33.69,19.4-5.19,40.49-4.64,62.7,1.64s44.4,18,66,34.77C316,75.94,336.65,98,355.1,124.25a377.67,377.67,0,0,1,44.95,85.46A353.84,353.84,0,0,1,421,298.37c2.9,29.38,1.52,56.83-4.12,81.58-5.83,25.63-16,47.23-30.16,64.21S355.12,472.47,335,477.85c-19.4,5.19-40.49,4.64-62.7-1.64s-44.4-18-66-34.77c-22.33-17.38-43-39.48-61.46-65.69A377.67,377.67,0,0,1,100,290.29,353.84,353.84,0,0,1,79,201.63c-2.9-29.38-1.52-56.83,4.12-81.58,5.83-25.63,16-47.23,30.16-64.21m-.54-.78c-58.28,69.73-44.09,213.53,31.71,321.2S329,514.67,387.23,444.94s44.09-213.53-31.71-321.2S171.05-14.67,112.77,55.06Z"/><path class="cls-1" d="M128.26,40.63a113.06,113.06,0,0,1,60.18-27.14c21.62-2.8,44.31.32,67.43,9.26S301.39,46,322.44,65.3c21.79,20,41.17,44.43,57.61,72.7a359.82,359.82,0,0,1,37.17,90.29A326.84,326.84,0,0,1,428,318.85c-.76,29.51-5.89,56.59-15.24,80.47-9.69,24.72-23.5,44.93-41.06,60.05a113.06,113.06,0,0,1-60.18,27.14c-21.62,2.8-44.31-.32-67.43-9.26S198.61,454,177.56,434.7c-21.79-20-41.17-44.43-57.61-72.7a359.82,359.82,0,0,1-37.17-90.29A326.84,326.84,0,0,1,72,181.15c.76-29.51,5.89-56.59,15.24-80.47,9.69-24.72,23.5-44.93,41.06-60m-.49-.84c-72.11,62.11-75.85,206.57-8.34,322.66s180.69,159.87,252.8,97.76,75.85-206.57,8.34-322.66S199.88-22.32,127.77,39.79Z"/><path class="cls-1" d="M146.39,27.35a130.61,130.61,0,0,1,68.53-19.6c23.69-.14,47.75,5.72,71.52,17.41s46,28.64,66.18,50.35c20.86,22.47,38.53,49.11,52.52,79.17a337.55,337.55,0,0,1,28.14,94.15A300.82,300.82,0,0,1,433,340c-4.73,29.2-13.85,55.45-27.11,78-13.72,23.36-31.3,41.73-52.24,54.6a130.61,130.61,0,0,1-68.53,19.6c-23.69.14-47.75-5.72-71.52-17.41s-46-28.64-66.18-50.35c-20.86-22.47-38.53-49.11-52.52-79.17a337.55,337.55,0,0,1-28.14-94.15A300.82,300.82,0,0,1,67,160c4.73-29.2,13.85-55.45,27.11-78,13.72-23.36,31.3-41.73,52.24-54.6m-.42-.89C60,79.32,36.79,222.25,94.24,345.7S268,526.4,354,473.54,463.21,277.75,405.76,154.3,232-26.4,146,26.46Z"/><path class="cls-1" d="M167.71,16.39A153,153,0,0,1,244.24,5.28c25.58,2.75,50.77,11.5,74.85,26s45.87,34,64.73,58a296.24,296.24,0,0,1,46.18,85,312.74,312.74,0,0,1,17.88,96.88,278,278,0,0,1-12.42,90.48c-9,28.41-22.29,53.35-39.58,74.13-17.9,21.51-39.29,37.6-63.59,47.82a153,153,0,0,1-76.53,11.11c-25.58-2.75-50.77-11.5-74.85-26s-45.87-34-64.73-58A296.24,296.24,0,0,1,70,325.7a312.74,312.74,0,0,1-17.88-96.88,278,278,0,0,1,12.42-90.48c9-28.41,22.29-53.35,39.58-74.13,17.9-21.51,39.29-37.6,63.59-47.82m-.33-.94c-99.81,42-143.73,181-98.1,310.56S232.81,526.53,332.62,484.55s143.73-181,98.1-310.56S267.19-26.53,167.38,15.45Z"/><path class="cls-1" d="M192.17,8.1a180.37,180.37,0,0,1,84-1.7c27.23,5.85,53.24,17.6,77.3,34.93a247.65,247.65,0,0,1,62.15,65.49,283,283,0,0,1,38.56,90,288.55,288.55,0,0,1,6.46,98.34,261,261,0,0,1-25.38,88.29c-13.45,27.1-31.12,50.23-52.52,68.75a185.22,185.22,0,0,1-74.95,39.72,180.37,180.37,0,0,1-84,1.7c-27.23-5.85-53.24-17.6-77.3-34.93a247.65,247.65,0,0,1-62.15-65.49,283,283,0,0,1-38.56-90,288.55,288.55,0,0,1-6.46-98.34A261,261,0,0,1,64.7,116.57c13.45-27.1,31.12-50.23,52.52-68.75A185.15,185.15,0,0,1,192.17,8.1m-.23-1C78.7,36.63,12.89,169.28,45,303.42s149.86,219,263.1,189.45S487.11,330.72,455,196.58,305.18-22.37,191.94,7.13Z"/><path class="cls-1" d="M219.65,2.86a212.08,212.08,0,0,1,90.89,8.55A228.25,228.25,0,0,1,389.32,55.5a250.3,250.3,0,0,1,58.37,72.58,269.95,269.95,0,0,1,23.63,192.4A250.47,250.47,0,0,1,432.23,405a228.31,228.31,0,0,1-65.77,61.84,213,213,0,0,1-177,21.73,228.25,228.25,0,0,1-78.78-44.09,250.3,250.3,0,0,1-58.37-72.58,269.95,269.95,0,0,1-23.63-192.4A250.47,250.47,0,0,1,67.77,95a228.31,228.31,0,0,1,65.77-61.84A212,212,0,0,1,219.65,2.86m-.12-1C93.45,17.34,4.89,141,21.71,278S154.39,513.62,280.47,498.14,495.11,359,478.29,222,345.61-13.62,219.53,1.86Z"/><path class="cls-1" d="M250,1A248.93,248.93,0,0,1,426.07,426.07a249,249,0,1,1-273-405.5A247.32,247.32,0,0,1,250,1m0-1C111.93,0,0,111.93,0,250S111.93,500,250,500,500,388.07,500,250,388.07,0,250,0Z"/></g></g></svg>