<svg xmlns="http://www.w3.org/2000/svg" xmlns:xlink="http://www.w3.org/1999/xlink" width="108" height="106" viewBox="0 0 108 106">
  <defs>
    <clipPath id="clip-path">
      <rect id="Rectangle_36" data-name="Rectangle 36" width="60" height="60" transform="translate(353 24)" fill="#fff"/>
    </clipPath>
    <clipPath id="clip-path-2">
      <rect id="Rectangle_37" data-name="Rectangle 37" width="40" height="40" transform="translate(463 24)" fill="#fff"/>
    </clipPath>
    <clipPath id="clip-path-3">
      <rect id="Rectangle_38" data-name="Rectangle 38" width="20" height="20" transform="translate(503 79)" fill="#f7dd95"/>
    </clipPath>
    <clipPath id="clip-path-4">
      <rect id="Rectangle_39" data-name="Rectangle 39" width="50" height="50" transform="translate(412 531)" fill="#fff"/>
    </clipPath>
  </defs>
  <g id="Group_94" data-name="Group 94" transform="translate(4060 -4555)">
    <g id="Mask_Group_30" data-name="Mask Group 30" transform="translate(-4413 4531)" clip-path="url(#clip-path)">
      <path id="gear-solid" d="M56.484,19.527a2.655,2.655,0,0,1-.75,2.883L52.112,25.7a4.16,4.16,0,0,0-1.278,3.27c.012.34.023.68.023,1.031s-.012.692-.023,1.031a4.091,4.091,0,0,0,1.278,3.27L55.734,37.6a2.655,2.655,0,0,1,.75,2.883,29.053,29.053,0,0,1-1.852,4.02l-.551.949a29.826,29.826,0,0,1-2.59,3.657,2.655,2.655,0,0,1-2.872.8l-4.653-1.477a4.134,4.134,0,0,0-3.481.539,20.365,20.365,0,0,1-1.77,1.02,4.177,4.177,0,0,0-2.2,2.743L35.468,57.5a2.649,2.649,0,0,1-2.133,2.086,30.45,30.45,0,0,1-9.963,0A2.649,2.649,0,0,1,21.239,57.5L20.2,52.733a4.144,4.144,0,0,0-2.2-2.743c-.609-.316-1.2-.656-1.77-1.02a4.128,4.128,0,0,0-3.481-.539L8.1,49.92a2.675,2.675,0,0,1-2.872-.8,29.826,29.826,0,0,1-2.59-3.657l-.551-.949A29.053,29.053,0,0,1,.234,40.5a2.655,2.655,0,0,1,.75-2.883l3.622-3.294a4.16,4.16,0,0,0,1.278-3.27c-.012-.34-.023-.68-.023-1.031s.012-.692.023-1.031a4.091,4.091,0,0,0-1.278-3.27L.985,22.411a2.655,2.655,0,0,1-.75-2.883,29.053,29.053,0,0,1,1.852-4.02l.551-.949A29.826,29.826,0,0,1,5.228,10.9,2.655,2.655,0,0,1,8.1,10.1l4.653,1.477a4.134,4.134,0,0,0,3.481-.539A20.365,20.365,0,0,1,18,10.021a4.177,4.177,0,0,0,2.2-2.743l1.043-4.77A2.649,2.649,0,0,1,23.383.422,29.057,29.057,0,0,1,28.365,0a30.287,30.287,0,0,1,4.981.41A2.649,2.649,0,0,1,35.48,2.5l1.043,4.77a4.111,4.111,0,0,0,2.2,2.743c.609.316,1.2.656,1.77,1.02a4.169,4.169,0,0,0,3.481.539l4.653-1.477a2.675,2.675,0,0,1,2.872.8,29.826,29.826,0,0,1,2.59,3.657l.551.949a29.053,29.053,0,0,1,1.852,4.02ZM28.365,39.383a9.377,9.377,0,1,0-9.377-9.377,9.377,9.377,0,0,0,9.377,9.377Z" transform="translate(354.641 24)" fill="#fff"/>
    </g>
    <g id="Mask_Group_31" data-name="Mask Group 31" transform="translate(-4464 4533)" clip-path="url(#clip-path-2)">
      <path id="gear-thin" d="M15.356,2.226a1.246,1.246,0,0,1,1.219-.976h4.5a1.246,1.246,0,0,1,1.219.976L23.3,6.686a.624.624,0,0,0,.391.445A13.7,13.7,0,0,1,27.526,9.35a.621.621,0,0,0,.578.109L32.478,8.1a1.25,1.25,0,0,1,1.453.57l2.257,3.905a1.258,1.258,0,0,1-.234,1.547l-3.367,3.109a.628.628,0,0,0-.2.562,13.786,13.786,0,0,1,0,4.437.642.642,0,0,0,.2.562L35.954,25.9a1.258,1.258,0,0,1,.234,1.547l-2.257,3.874a1.25,1.25,0,0,1-1.453.57L28.1,30.533a.613.613,0,0,0-.578.109,13.9,13.9,0,0,1-3.835,2.218.639.639,0,0,0-.391.445l-1.008,4.46a1.246,1.246,0,0,1-1.219.976h-4.5a1.246,1.246,0,0,1-1.219-.976l-1.008-4.46a.624.624,0,0,0-.391-.445,13.7,13.7,0,0,1-3.835-2.218.621.621,0,0,0-.578-.109L5.171,31.892a1.25,1.25,0,0,1-1.453-.57L1.461,27.417a1.258,1.258,0,0,1,.234-1.547l3.367-3.109a.628.628,0,0,0,.2-.562,13.522,13.522,0,0,1-.18-2.2,13.861,13.861,0,0,1,.18-2.218.642.642,0,0,0-.2-.562l-3.367-3.1a1.258,1.258,0,0,1-.234-1.547l2.257-3.9A1.25,1.25,0,0,1,5.171,8.1l.187-.594L5.171,8.1,9.545,9.459a.613.613,0,0,0,.578-.109,13.7,13.7,0,0,1,3.835-2.218.639.639,0,0,0,.391-.445l1.008-4.46ZM16.575,0a2.5,2.5,0,0,0-2.437,1.953L13.2,6.093A15,15,0,0,0,9.6,8.178L5.538,6.913A2.5,2.5,0,0,0,2.632,8.045L.383,11.951a2.494,2.494,0,0,0,.469,3.085l3.117,2.882a15.422,15.422,0,0,0,0,4.155L.851,24.956l.422.461-.422-.461a2.5,2.5,0,0,0-.469,3.085l2.25,3.905a2.5,2.5,0,0,0,2.906,1.14l4.054-1.265a15.3,15.3,0,0,0,3.6,2.086l.937,4.14A2.5,2.5,0,0,0,16.567,40h4.5A2.5,2.5,0,0,0,23.5,38.047l.937-4.14a14.742,14.742,0,0,0,3.6-2.086L32.1,33.087A2.5,2.5,0,0,0,35,31.947l2.265-3.905a2.494,2.494,0,0,0-.469-3.085l-3.117-2.882a15.422,15.422,0,0,0,0-4.155L36.8,15.036a2.5,2.5,0,0,0,.469-3.085l-2.25-3.905A2.5,2.5,0,0,0,32.111,6.9L28.057,8.17a14.91,14.91,0,0,0-3.609-2.078l-.937-4.14A2.5,2.5,0,0,0,21.074,0ZM13.825,20a5,5,0,1,1,5,5A5,5,0,0,1,13.825,20Zm11.248,0a6.249,6.249,0,1,0-6.249,6.249A6.249,6.249,0,0,0,25.073,20Z" transform="translate(464.176 24)" fill="#fff"/>
    </g>
    <g id="Mask_Group_32" data-name="Mask Group 32" transform="translate(-4475 4512)" clip-path="url(#clip-path-3)">
      <path id="gear-thin-2" data-name="gear-thin" d="M7.678,1.113A.623.623,0,0,1,8.287.625h2.25a.623.623,0,0,1,.609.488l.5,2.23a.312.312,0,0,0,.2.223,6.852,6.852,0,0,1,1.918,1.109.31.31,0,0,0,.289.055l2.187-.68a.625.625,0,0,1,.726.285l1.129,1.953a.629.629,0,0,1-.117.773L16.294,8.616a.314.314,0,0,0-.1.281,6.893,6.893,0,0,1,0,2.218.321.321,0,0,0,.1.281l1.683,1.554a.629.629,0,0,1,.117.773l-1.129,1.937a.625.625,0,0,1-.726.285l-2.187-.68a.306.306,0,0,0-.289.055,6.948,6.948,0,0,1-1.918,1.109.32.32,0,0,0-.2.223l-.5,2.23a.623.623,0,0,1-.609.488H8.287a.623.623,0,0,1-.609-.488l-.5-2.23a.312.312,0,0,0-.2-.223,6.852,6.852,0,0,1-1.918-1.109.31.31,0,0,0-.289-.055l-2.187.68a.625.625,0,0,1-.726-.285L.73,13.708a.629.629,0,0,1,.117-.773l1.683-1.554a.314.314,0,0,0,.1-.281,6.761,6.761,0,0,1-.09-1.1,6.93,6.93,0,0,1,.09-1.109.321.321,0,0,0-.1-.281L.847,7.057A.629.629,0,0,1,.73,6.284L1.859,4.335a.625.625,0,0,1,.726-.285l.094-.3-.094.3,2.187.68a.306.306,0,0,0,.289-.055A6.852,6.852,0,0,1,6.979,3.566a.32.32,0,0,0,.2-.223l.5-2.23ZM8.287,0A1.249,1.249,0,0,0,7.069.976L6.6,3.046A7.5,7.5,0,0,0,4.8,4.089L2.769,3.456a1.248,1.248,0,0,0-1.453.566L.191,5.975A1.247,1.247,0,0,0,.426,7.518L1.984,8.959a7.711,7.711,0,0,0,0,2.078L.426,12.478l.211.23-.211-.23a1.248,1.248,0,0,0-.234,1.543l1.125,1.953a1.25,1.25,0,0,0,1.453.57L4.8,15.911a7.652,7.652,0,0,0,1.8,1.043l.469,2.07A1.252,1.252,0,0,0,8.284,20h2.25a1.249,1.249,0,0,0,1.219-.976l.469-2.07a7.371,7.371,0,0,0,1.8-1.043l2.027.633a1.25,1.25,0,0,0,1.453-.57l1.133-1.953a1.247,1.247,0,0,0-.234-1.543L16.84,11.037a7.711,7.711,0,0,0,0-2.078L18.4,7.518a1.248,1.248,0,0,0,.234-1.543L17.508,4.023a1.25,1.25,0,0,0-1.453-.57l-2.027.633a7.455,7.455,0,0,0-1.8-1.039L11.756.976A1.252,1.252,0,0,0,10.537,0ZM6.913,10a2.5,2.5,0,1,1,2.5,2.5A2.5,2.5,0,0,1,6.913,10Zm5.624,0a3.124,3.124,0,1,0-3.124,3.124A3.124,3.124,0,0,0,12.537,10Z" transform="translate(503.588 79)" fill="#f7dd95"/>
    </g>
    <g id="Mask_Group_33" data-name="Mask Group 33" transform="translate(-4543 5073) rotate(-90)" clip-path="url(#clip-path-4)">
      <path id="wrench-thin" d="M49.57,11.992a1.577,1.577,0,0,0-2.641-.717l-7.476,7.477H31.339V10.637L38.814,3.16A1.575,1.575,0,0,0,38.1.52,13.12,13.12,0,0,0,34.287,0a16.179,16.179,0,0,0-3.779.454A15.546,15.546,0,0,0,19.541,20.437L2.149,37.829a7.028,7.028,0,0,0,0,9.941A6.479,6.479,0,0,0,6.943,50a7.161,7.161,0,0,0,4.972-2.06L29.308,30.548a15.825,15.825,0,0,0,7.438.586A15.618,15.618,0,0,0,49.373,19.494,14.243,14.243,0,0,0,49.57,11.992Zm-1.543,7.061A14.018,14.018,0,0,1,36.68,29.512c-.571.09-3.1.663-7.62-.828L10.905,46.838A5.468,5.468,0,0,1,3.173,39.1L21.327,20.95c-1.5-4.551-.948-6.858-.828-7.62A13.987,13.987,0,0,1,37.628,1.976L29.694,9.909v10.41H40.1l7.951-7.957A14.337,14.337,0,0,1,48.027,19.053ZM7.812,40.537A1.563,1.563,0,1,0,9.374,42.1,1.625,1.625,0,0,0,7.812,40.537Z" transform="translate(411.966 531)" fill="#fff"/>
    </g>
  </g>
</svg>
