<svg xmlns="http://www.w3.org/2000/svg" xmlns:xlink="http://www.w3.org/1999/xlink" width="185" height="110" viewBox="0 0 185 110">
  <defs>
    <clipPath id="clip-path">
      <rect id="Rectangle_29" data-name="Rectangle 29" width="25" height="25" transform="translate(760 18)" fill="#fff"/>
    </clipPath>
    <clipPath id="clip-path-2">
      <rect id="Rectangle_30" data-name="Rectangle 30" width="25" height="25" transform="translate(840 35)" fill="#fff"/>
    </clipPath>
    <clipPath id="clip-path-3">
      <rect id="Rectangle_31" data-name="Rectangle 31" width="25" height="25" transform="translate(840 91)" fill="#fff"/>
    </clipPath>
    <clipPath id="clip-path-4">
      <rect id="Rectangle_32" data-name="Rectangle 32" width="25" height="25" transform="translate(760 103)" fill="#fff"/>
    </clipPath>
    <clipPath id="clip-path-5">
      <rect id="Rectangle_33" data-name="Rectangle 33" width="25" height="25" transform="translate(685 91)" fill="#fff"/>
    </clipPath>
    <clipPath id="clip-path-6">
      <rect id="Rectangle_34" data-name="Rectangle 34" width="25" height="25" transform="translate(680 35)" fill="#fff"/>
    </clipPath>
  </defs>
  <g id="Group_40" data-name="Group 40" transform="translate(-680 -18)">
    <g id="Mask_Group_24" data-name="Mask Group 24" clip-path="url(#clip-path)">
      <g id="icons8-adobe-illustrator" transform="translate(755.833 13.833)">
        <path id="Path_1769" data-name="Path 1769" d="M4.167,6.944A2.778,2.778,0,0,1,6.944,4.167H26.389a2.778,2.778,0,0,1,2.778,2.778V26.389a2.778,2.778,0,0,1-2.778,2.778H6.944a2.778,2.778,0,0,1-2.778-2.778Z" fill="#ff5722"/>
        <path id="Path_1770" data-name="Path 1770" d="M6.25,6.25V27.083H27.083V6.25Zm10.2,15.278-.529-2.021H13.2l-.528,2.021H10.566l3.085-9.874h1.824l3.106,9.874Zm4.972,0H19.5V14.19h1.926Zm-.207-8.5a1.045,1.045,0,0,1-1.808-.733.993.993,0,0,1,.285-.733,1.156,1.156,0,0,1,1.519,0,.99.99,0,0,1,.285.733A1.014,1.014,0,0,1,21.217,13.024Z" fill="#1c0802"/>
        <path id="Path_1771" data-name="Path 1771" d="M13.638,17.845h1.844l-.922-3.519Z" fill="#1c0802"/>
      </g>
    </g>
    <g id="Mask_Group_27" data-name="Mask Group 27" clip-path="url(#clip-path-2)">
      <g id="icons8-figma" transform="translate(837.619 33.214)">
        <path id="Path_1777" data-name="Path 1777" d="M15.476,10.119H10.714A4.167,4.167,0,0,1,6.548,5.952h0a4.167,4.167,0,0,1,4.167-4.167h4.762Z" fill="#e64a19"/>
        <path id="Path_1778" data-name="Path 1778" d="M14.881,18.452H10.714a4.167,4.167,0,0,1-4.167-4.167h0a4.167,4.167,0,0,1,4.167-4.167h4.167Z" fill="#7c4dff"/>
        <path id="Path_1779" data-name="Path 1779" d="M10.714,26.786h0a4.167,4.167,0,0,1-4.167-4.167h0a4.167,4.167,0,0,1,4.167-4.167h4.167v4.167A4.167,4.167,0,0,1,10.714,26.786Z" fill="#66bb6a"/>
        <path id="Path_1780" data-name="Path 1780" d="M19.048,10.119H14.881V1.786h4.167a4.167,4.167,0,0,1,4.167,4.167h0A4.167,4.167,0,0,1,19.048,10.119Z" fill="#ff7043"/>
        <circle id="Ellipse_11" data-name="Ellipse 11" cx="4.167" cy="4.167" r="4.167" transform="translate(14.881 10.119)" fill="#29b6f6"/>
      </g>
    </g>
    <g id="Mask_Group_28" data-name="Mask Group 28" clip-path="url(#clip-path-3)">
      <path id="sketch" d="M1.391,8.2.455,9.463H5.032l.349-6.61ZM20.043,2.311l-6.5-.693L20.4,9.063l-.359-6.752ZM5.675,11.041,5.108,9.928H.5L11.875,23.164Zm.1-1.578H20.14L16.018,4.987,12.963,1.669Zm15.036.46L14.04,23.164,25.41,9.928h-4.6Zm.2-6.433-.475-.637.046.875.309,5.735h4.567ZM5.74,4.729,5.508,9.058l6.868-7.44-6.5.693ZM20.291,9.923H5.624l2.144,4.193,5.194,10.161L20.291,9.923Z" transform="translate(839.545 90.552)" fill="#fff"/>
    </g>
    <g id="Mask_Group_25" data-name="Mask Group 25" clip-path="url(#clip-path-4)">
      <g id="icons8-adobe-photoshop" transform="translate(755.833 98.833)">
        <path id="Path_1772" data-name="Path 1772" d="M4.167,6.944A2.778,2.778,0,0,1,6.944,4.167H26.389a2.778,2.778,0,0,1,2.778,2.778V26.389a2.778,2.778,0,0,1-2.778,2.778H6.944a2.778,2.778,0,0,1-2.778-2.778Z" fill="#03a9f4"/>
        <path id="Path_1773" data-name="Path 1773" d="M13.9,13.315H12.51v3.079h1.37a1.087,1.087,0,0,0,.882-.373,1.65,1.65,0,0,0,.312-1.085,1.956,1.956,0,0,0-.319-1.176A1.024,1.024,0,0,0,13.9,13.315Z" fill="#020f16"/>
        <path id="Path_1774" data-name="Path 1774" d="M6.25,6.25V27.083H27.083V6.25Zm9.976,10.965a3.268,3.268,0,0,1-2.387.841H12.51v3.472H10.516V11.653H13.88a3.086,3.086,0,0,1,2.336.909,3.269,3.269,0,0,1,.872,2.36A3.057,3.057,0,0,1,16.226,17.215Zm6.47,3.852a2.992,2.992,0,0,1-1.94.6,3.084,3.084,0,0,1-1.424-.315,2.4,2.4,0,0,1-.967-.878,2.262,2.262,0,0,1-.349-1.214H19.84a1.166,1.166,0,0,0,.234.753.917.917,0,0,0,.722.251q.773,0,.773-.7a.6.6,0,0,0-.234-.451,4.646,4.646,0,0,0-1.04-.559,4.324,4.324,0,0,1-1.631-1,1.894,1.894,0,0,1-.444-1.282,2.049,2.049,0,0,1,.7-1.59,2.645,2.645,0,0,1,1.841-.627,2.867,2.867,0,0,1,1.933.624,2.1,2.1,0,0,1,.726,1.675H21.494q0-.895-.746-.9a.665.665,0,0,0-.7.719.555.555,0,0,0,.217.431,4.762,4.762,0,0,0,1.024.533,4.241,4.241,0,0,1,1.658.967,1.969,1.969,0,0,1,.485,1.38A1.931,1.931,0,0,1,22.7,21.067Z" fill="#020f16"/>
      </g>
    </g>
    <g id="Mask_Group_23" data-name="Mask Group 23" clip-path="url(#clip-path-5)">
      <g id="icons8-adobe-after-effects" transform="translate(680.833 86.833)">
        <path id="Path_1766" data-name="Path 1766" d="M4.167,6.944A2.778,2.778,0,0,1,6.944,4.167H26.389a2.778,2.778,0,0,1,2.778,2.778V26.389a2.778,2.778,0,0,1-2.778,2.778H6.944a2.778,2.778,0,0,1-2.778-2.778Z" fill="#b388ff"/>
        <path id="Path_1767" data-name="Path 1767" d="M6.25,6.25V27.083H27.083V6.25Z" fill="#170b40"/>
        <path id="Path_1768" data-name="Path 1768" d="M14.71,19.42H11.547l-.6,1.976H9.028l3.26-9.591h1.672l3.277,9.59H15.318Zm-2.676-1.6h2.189l-1.1-3.59Zm8.9,3.708a3.264,3.264,0,0,1-1.356-.27,3,3,0,0,1-1.017-.738,3.208,3.208,0,0,1-.638-1.1,4.072,4.072,0,0,1-.219-1.347v-.257a4.905,4.905,0,0,1,.214-1.485,3.491,3.491,0,0,1,.608-1.163,2.776,2.776,0,0,1,.956-.761,3.094,3.094,0,0,1,2.5-.02,2.5,2.5,0,0,1,.9.712,3.12,3.12,0,0,1,.547,1.1,5.255,5.255,0,0,1,.184,1.437v.81H19.468a2.114,2.114,0,0,0,.172.632,1.636,1.636,0,0,0,.331.484,1.447,1.447,0,0,0,.472.313,1.571,1.571,0,0,0,.608.112,1.988,1.988,0,0,0,.878-.194,1.8,1.8,0,0,0,.692-.6l.854,1.047a2.748,2.748,0,0,1-.391.474,2.664,2.664,0,0,1-.553.412,3.061,3.061,0,0,1-.719.29A3.307,3.307,0,0,1,20.935,21.528Zm-.2-5.849a1.076,1.076,0,0,0-.5.109,1.1,1.1,0,0,0-.367.3,1.607,1.607,0,0,0-.249.465,2.865,2.865,0,0,0-.138.6H21.9V17a2.076,2.076,0,0,0-.076-.527,1.185,1.185,0,0,0-.21-.422.954.954,0,0,0-.36-.276A1.267,1.267,0,0,0,20.737,15.678Z" fill="#b388ff"/>
      </g>
    </g>
    <g id="Mask_Group_26" data-name="Mask Group 26" clip-path="url(#clip-path-6)">
      <g id="icons8-adobe-xd" transform="translate(675.833 30.833)">
        <path id="Path_1775" data-name="Path 1775" d="M4.167,6.944A2.778,2.778,0,0,1,6.944,4.167H26.389a2.778,2.778,0,0,1,2.778,2.778V26.389a2.778,2.778,0,0,1-2.778,2.778H6.944a2.778,2.778,0,0,1-2.778-2.778Z" fill="#ff41c8"/>
        <path id="Path_1776" data-name="Path 1776" d="M6.25,6.25V27.083H27.083V6.25Zm7.009,8.816,1.329-3.391h2.285l-2.319,4.9,2.374,4.978H14.615L13.259,18.1,11.91,21.549H9.6l2.374-4.978-2.326-4.9H11.93Zm4.15,2.591a4.79,4.79,0,0,1,.61-2.692,2.02,2.02,0,0,1,1.777-.888,1.714,1.714,0,0,1,1.41.733V11.133H23.14V21.55H21.4l-.088-.746a1.767,1.767,0,0,1-1.519.882,2,2,0,0,1-1.76-.882,4.635,4.635,0,0,1-.621-2.59v-.557Zm1.926.481a3.5,3.5,0,0,0,.231,1.516.814.814,0,0,0,.78.431.936.936,0,0,0,.861-.508v-3.35a.914.914,0,0,0-.854-.542.825.825,0,0,0-.773.427,3.33,3.33,0,0,0-.244,1.519Z" fill="#16020b"/>
      </g>
    </g>
  </g>
</svg>
