<svg xmlns="http://www.w3.org/2000/svg" xmlns:xlink="http://www.w3.org/1999/xlink" width="183" height="109" viewBox="0 0 183 109">
  <defs>
    <clipPath id="clip-path">
      <rect id="Rectangle_22" data-name="Rectangle 22" width="25" height="25" transform="translate(499 89)" fill="#fff"/>
    </clipPath>
    <clipPath id="clip-path-2">
      <rect id="Rectangle_24" data-name="Rectangle 24" width="25" height="25" transform="translate(503 143)" fill="#fff"/>
    </clipPath>
    <clipPath id="clip-path-3">
      <rect id="Rectangle_23" data-name="Rectangle 23" width="25" height="25" transform="translate(420 76)" fill="#bd002e"/>
    </clipPath>
    <clipPath id="clip-path-4">
      <rect id="Rectangle_26" data-name="Rectangle 26" width="25" height="25" transform="translate(437 150)" fill="#fff"/>
    </clipPath>
    <clipPath id="clip-path-5">
      <rect id="Rectangle_25" data-name="Rectangle 25" width="25" height="25" transform="translate(345 150)" fill="#5ed3f3"/>
    </clipPath>
    <clipPath id="clip-path-6">
      <rect id="Rectangle_27" data-name="Rectangle 27" width="25" height="25" transform="translate(390 125)" fill="#70b255"/>
    </clipPath>
  </defs>
  <g id="Group_38" data-name="Group 38" transform="translate(-358 -72)">
    <text id="ASP.Net" transform="translate(432.108 120.201) rotate(1)" fill="#fff" font-size="10" font-family="AcuminPro-Bold, Acumin Pro" font-weight="700"><tspan x="0" y="7">ASP.Net</tspan></text>
    <g id="Mask_Group_18" data-name="Mask Group 18" transform="translate(17 3)" clip-path="url(#clip-path)">
      <path id="java" d="M13.561,15.278a7.893,7.893,0,0,1,1.143-.61s-1.89.342-3.769.5a34.34,34.34,0,0,1-6.011.063c-2.935-.391,1.611-1.47,1.611-1.47a8.648,8.648,0,0,0-3.935.928C.036,15.928,8.947,16.494,13.561,15.278Zm-4.17-1.567c-.928-2.085-4.058-3.916,0-7.119C14.453,2.6,11.857,0,11.857,0c1.05,4.126-3.691,5.376-5.405,7.939C5.285,9.692,7.023,11.572,9.391,13.711Zm5.6-8.6s-8.555,2.139-4.468,6.846A1.831,1.831,0,0,1,10.2,14.59s3.061-1.582,1.655-3.56C10.544,9.184,9.538,8.266,14.987,5.107Zm-.3,13.208a.6.6,0,0,1-.1.127c6.265-1.645,3.96-5.806.967-4.751a.846.846,0,0,0-.4.308,3.44,3.44,0,0,1,.537-.146c1.514-.317,3.686,2.026-1.006,4.463Zm2.3,3.042s.708.581-.776,1.035c-2.827.854-11.758,1.113-14.238.034-.894-.386.781-.928,1.309-1.04a3.542,3.542,0,0,1,.864-.1c-.991-.7-6.411,1.372-2.754,1.963C11.369,24.873,19.58,22.524,16.992,21.357ZM6.076,19.336c-3.843,1.074,2.339,3.291,7.231,1.2a9.077,9.077,0,0,1-1.377-.674,14.289,14.289,0,0,1-5.176.22c-1.636-.186-.679-.742-.679-.742Zm8.779,4.746a37.01,37.01,0,0,1-11.391.176s.576.474,3.535.664c4.5.288,11.416-.161,11.577-2.29,0,0-.312.806-3.721,1.45Zm-2.129-6.846a20.171,20.171,0,0,1-6.68.322c-1.636-.171-.566-.962-.566-.962-4.238,1.406,2.353,3,8.276,1.265a2.948,2.948,0,0,1-1.03-.625Z" transform="translate(502.14 89)" fill="#fff"/>
    </g>
    <g id="Mask_Group_22" data-name="Mask Group 22" clip-path="url(#clip-path-2)">
      <path id="python" d="M24.542,11.188c-.43-1.724-1.244-3.024-2.98-3.024H19.324v2.645A3.827,3.827,0,0,1,15.6,14.592H9.637a3.041,3.041,0,0,0-2.98,3.03V23.3c0,1.618,1.406,2.567,2.98,3.03a10.028,10.028,0,0,0,5.96,0c1.5-.435,2.98-1.311,2.98-3.03V21.032H12.622v-.759h8.939c1.735,0,2.377-1.211,2.98-3.024a10.206,10.206,0,0,0,0-6.06ZM15.97,22.544a1.136,1.136,0,1,1-1.122,1.133A1.128,1.128,0,0,1,15.97,22.544Zm-6.607-8.7h5.96s2.98-1.367,2.98-3.03V5.128a3.331,3.331,0,0,0-2.98-3.1,18.394,18.394,0,0,0-5.96.006c-2.522.446-2.98,1.378-2.98,3.1V7.4h5.965v.759h-8.2A3.725,3.725,0,0,0,.419,11.188a11.176,11.176,0,0,0,0,6.06c.424,1.763,1.434,3.024,3.17,3.024H5.636V17.55a3.789,3.789,0,0,1,3.728-3.705ZM8.99,5.887a1.136,1.136,0,1,1,1.122-1.133A1.128,1.128,0,0,1,8.99,5.887Z" transform="translate(503 141.214)" fill="#fff"/>
    </g>
    <g id="Mask_Group_17" data-name="Mask Group 17" transform="translate(14 -4)" clip-path="url(#clip-path-3)">
      <path id="angular" d="M10.363,14.961h4.252L12.489,9.849l-2.126,5.112ZM12.489,1.786.893,5.938,2.667,21.323l9.821,5.463,9.821-5.463L24.085,5.937Zm7.266,19.074H17.042L15.58,17.21H9.408l-1.462,3.65H5.229l7.26-16.311Z" transform="translate(420.011 74.214)" fill="#bd002e"/>
    </g>
    <g id="Mask_Group_19" data-name="Mask Group 19" transform="translate(-3 6)" clip-path="url(#clip-path-4)">
      <path id="database-thin" d="M10.938,25C4.9,25,0,23.252,0,21.094V3.906C0,1.749,4.9,0,10.938,0S21.875,1.749,21.875,3.906V21.094C21.875,23.252,16.978,25,10.938,25Zm10.156-3.906V16.685a12.148,12.148,0,0,1-3.623,1.436,27.871,27.871,0,0,1-6.533.723,27.834,27.834,0,0,1-6.531-.723A12.144,12.144,0,0,1,.781,16.685v4.409c0,.22.123.493.583.923a6.929,6.929,0,0,0,2.1,1.1,23.158,23.158,0,0,0,7.471,1.1,23.152,23.152,0,0,0,7.471-1.1,6.967,6.967,0,0,0,2.1-1.1C20.972,21.587,21.094,21.313,21.094,21.094Zm-3.623-10a27.871,27.871,0,0,1-6.533.723,27.834,27.834,0,0,1-6.531-.723A12.144,12.144,0,0,1,.781,9.653v6.074a10.074,10.074,0,0,0,3.812,1.631,26.921,26.921,0,0,0,6.344.7,26.9,26.9,0,0,0,6.343-.7,10.068,10.068,0,0,0,3.813-1.631V9.653a12.148,12.148,0,0,1-3.623,1.436ZM21.094,8.7V3.906a1.3,1.3,0,0,0-.581-.923,6.957,6.957,0,0,0-2.1-1.1,23.139,23.139,0,0,0-7.471-1.1,23.144,23.144,0,0,0-7.471,1.1,6.918,6.918,0,0,0-2.1,1.1,1.3,1.3,0,0,0-.583.923V8.7a10.074,10.074,0,0,0,3.812,1.631,26.921,26.921,0,0,0,6.344.7,26.9,26.9,0,0,0,6.343-.7A10.068,10.068,0,0,0,21.094,8.7Z" transform="translate(438.563 150)" fill="#fff"/>
    </g>
    <g id="Mask_Group_21" data-name="Mask Group 21" transform="translate(13 -7)" clip-path="url(#clip-path-5)">
      <path id="react" d="M20.42,8.652q-.4-.132-.791-.249c.044-.181.083-.361.122-.542.6-2.91.205-5.249-1.128-6.021-1.284-.737-3.379.029-5.5,1.875-.21.181-.415.371-.61.562-.132-.127-.269-.254-.405-.376C9.888,1.929,7.661,1.1,6.328,1.875c-1.279.742-1.66,2.944-1.123,5.7.054.273.112.542.181.815-.312.088-.62.186-.908.288C1.87,9.58,0,11.006,0,12.48,0,14,1.992,15.532,4.7,16.46c.22.073.439.146.664.21-.073.293-.137.581-.2.879-.513,2.71-.112,4.858,1.167,5.6,1.318.762,3.535-.02,5.693-1.909.171-.151.342-.308.513-.474.215.21.439.41.664.605,2.09,1.8,4.155,2.524,5.43,1.787,1.318-.762,1.748-3.071,1.191-5.884q-.066-.322-.146-.659c.156-.044.308-.093.459-.142C22.959,15.537,25,14.028,25,12.48,25,11,23.076,9.565,20.42,8.652ZM13.813,4.507C15.63,2.925,17.324,2.3,18.1,2.749c.825.474,1.143,2.388.625,4.9-.034.166-.068.327-.112.488a25,25,0,0,0-3.286-.518,24.67,24.67,0,0,0-2.08-2.593c.19-.181.376-.352.571-.522ZM8.164,15.015c.249.425.5.85.771,1.265a22.11,22.11,0,0,1-2.266-.366,22.809,22.809,0,0,1,.8-2.173c.225.43.454.854.7,1.274ZM6.685,9.141c.7-.156,1.45-.283,2.227-.381-.259.405-.513.82-.752,1.24s-.474.84-.693,1.27c-.308-.728-.566-1.44-.781-2.129ZM8.022,12.5c.322-.674.674-1.333,1.045-1.982s.771-1.279,1.191-1.9c.732-.054,1.479-.083,2.241-.083s1.514.029,2.241.083q.623.923,1.187,1.89t1.06,1.973Q16.5,13.5,15.933,14.478c-.371.649-.767,1.279-1.182,1.9-.728.054-1.484.078-2.251.078s-1.509-.024-2.227-.068q-.637-.93-1.2-1.9c-.376-.649-.723-1.309-1.05-1.982ZM16.841,15c.249-.43.483-.864.713-1.3a22.667,22.667,0,0,1,.825,2.163,21.447,21.447,0,0,1-2.295.391c.264-.41.513-.83.757-1.25Zm.7-3.735c-.229-.43-.464-.859-.708-1.279s-.488-.825-.747-1.23a22.47,22.47,0,0,1,2.241.391A21.609,21.609,0,0,1,17.544,11.27ZM12.51,5.776a21.442,21.442,0,0,1,1.445,1.748c-.967-.044-1.938-.044-2.905,0C11.528,6.895,12.021,6.309,12.51,5.776ZM6.846,2.783c.82-.479,2.642.205,4.561,1.9.122.107.244.225.371.342A24.807,24.807,0,0,0,9.683,7.622,25.739,25.739,0,0,0,6.4,8.13c-.063-.249-.117-.5-.171-.757-.459-2.363-.156-4.146.615-4.59Zm-1.2,12.871c-.205-.059-.405-.122-.605-.19A9.959,9.959,0,0,1,1.968,13.94a2.191,2.191,0,0,1-.918-1.46c0-.894,1.543-2.036,3.77-2.812.278-.1.562-.186.845-.269A25.964,25.964,0,0,0,6.86,12.5,26.691,26.691,0,0,0,5.649,15.654Zm5.693,4.785a8.937,8.937,0,0,1-2.754,1.724,2.161,2.161,0,0,1-1.724.063c-.776-.449-1.1-2.173-.659-4.492.054-.273.112-.547.181-.815A24.427,24.427,0,0,0,9.7,17.4,25.768,25.768,0,0,0,11.812,20c-.156.151-.312.3-.469.435Zm1.2-1.187c-.5-.537-1-1.133-1.479-1.772.469.02.952.029,1.44.029s1-.01,1.484-.034A21.057,21.057,0,0,1,12.539,19.253Zm6.382,1.465a2.17,2.17,0,0,1-.806,1.528c-.776.449-2.432-.137-4.219-1.67-.205-.176-.41-.366-.62-.562A24.155,24.155,0,0,0,15.337,17.4a24.07,24.07,0,0,0,3.33-.513c.049.2.093.4.132.6A8.9,8.9,0,0,1,18.921,20.718Zm.889-5.249c-.137.044-.273.088-.415.127a24.8,24.8,0,0,0-1.245-3.115,24.68,24.68,0,0,0,1.2-3.071c.254.073.5.151.732.229,2.275.781,3.872,1.943,3.872,2.832C23.95,13.428,22.246,14.663,19.81,15.469Zm-7.31-.732A2.236,2.236,0,1,0,10.264,12.5,2.236,2.236,0,0,0,12.5,14.736Z" transform="translate(345 149.999)" fill="#5ed3f3"/>
    </g>
    <g id="Mask_Group_20" data-name="Mask Group 20" transform="translate(-32 -33)" clip-path="url(#clip-path-6)">
      <path id="node-js" d="M11.112,25.2a1.943,1.943,0,0,1-.962-.258L7.089,23.132c-.456-.258-.233-.347-.084-.4a6.029,6.029,0,0,0,1.384-.63.224.224,0,0,1,.228.02l2.351,1.394a.287.287,0,0,0,.283,0l9.163-5.288a.294.294,0,0,0,.139-.248V7.406a.3.3,0,0,0-.144-.253L11.251,1.87a.287.287,0,0,0-.283,0L1.816,7.158a.29.29,0,0,0-.144.253V17.983a.274.274,0,0,0,.144.243l2.51,1.449c1.364.68,2.2-.119,2.2-.928V8.309a.263.263,0,0,1,.268-.263H7.952a.266.266,0,0,1,.268.263V18.752a2.539,2.539,0,0,1-2.714,2.857A3.9,3.9,0,0,1,3.4,21.034L1,19.65a1.929,1.929,0,0,1-.962-1.672V7.406A1.935,1.935,0,0,1,1,5.735L10.15.446a2.009,2.009,0,0,1,1.925,0L21.237,5.74A1.929,1.929,0,0,1,22.2,7.411V17.983a1.941,1.941,0,0,1-.962,1.672l-9.163,5.288A1.929,1.929,0,0,1,11.112,25.2Zm7.4-10.423c0-1.979-1.339-2.505-4.152-2.877-2.848-.377-3.135-.57-3.135-1.235,0-.551.243-1.285,2.351-1.285,1.88,0,2.575.407,2.862,1.677a.266.266,0,0,0,.258.208h1.191a.259.259,0,0,0,.193-.084.276.276,0,0,0,.069-.2c-.184-2.188-1.637-3.2-4.574-3.2-2.614,0-4.172,1.1-4.172,2.952,0,2,1.553,2.56,4.058,2.808,3,.293,3.234.734,3.234,1.325,0,1.022-.823,1.458-2.753,1.458-2.426,0-2.957-.61-3.135-1.816a.263.263,0,0,0-.263-.223H9.356a.261.261,0,0,0-.263.263c0,1.543.838,3.383,4.852,3.383,2.9,0,4.564-1.151,4.564-3.145Z" transform="translate(391.383 124.799)" fill="#70b255"/>
    </g>
  </g>
</svg>
