<svg xmlns="http://www.w3.org/2000/svg" width="40" height="41.423" viewBox="0 0 40 41.423">
  <g id="Layer_2" data-name="Layer 2" transform="translate(0.003 0.019)">
    <g id="Layer_1" data-name="Layer 1">
      <g id="Layer_2-2" data-name="Layer 2">
        <g id="Layer_1-2" data-name="Layer 1">
          <path id="Path_1625" data-name="Path 1625" d="M10.46,31.42a.59.59,0,0,1-.37.06,4.06,4.06,0,0,0-2.46.67,3.72,3.72,0,0,0-1.51,1.74,4.63,4.63,0,0,0-.38,2,4.09,4.09,0,0,0,1.19,2.86,5.88,5.88,0,0,0,3.86,1.7,14.58,14.58,0,0,0,3.73-.14,12.42,12.42,0,0,0,3.08-1,15.6,15.6,0,0,0,2-1.17,14.85,14.85,0,0,0,1.68-1.38,21.11,21.11,0,0,0,1.95-2.17A29,29,0,0,0,25,32a22.47,22.47,0,0,0,1.67-3c.26-.51.57-1,.79-1.52a.26.26,0,0,0,.05-.17l-.07.05c-.72.88-1.37,1.79-2.06,2.67s-1.24,1.65-1.88,2.47c-.18.23-.39.46-.57.7a.48.48,0,0,1-.22.15,15.511,15.511,0,0,1-1.54.53c-.23.07-.29,0-.3-.13v-1.4A3.9,3.9,0,0,0,20,29.83a5.15,5.15,0,0,0-2.18-1.47A10.56,10.56,0,0,0,15,27.83a19.89,19.89,0,0,0-3.85.2,37.449,37.449,0,0,0-5.23,1.12c-.67.19-1.32.4-2,.6l-.23.06a.17.17,0,0,1-.14,0,.08.08,0,0,1,0-.1h0a15.22,15.22,0,0,0,1.3-1.8c.14-.17.22-.38.38-.55A19.32,19.32,0,0,0,6.5,25.62a.73.73,0,0,1,.5-.29c.65-.1,1.29-.25,2-.31h.11a18.62,18.62,0,0,1-1.14-3.27,12.46,12.46,0,0,1,.56-7.86A5,5,0,0,1,8.91,13a17.19,17.19,0,0,1,1.78-2.53,19.37,19.37,0,0,1,1.7-1.69c.52-.42,1.06-.83,1.61-1.24a23.751,23.751,0,0,1,2-1.33c.58-.35,1.17-.7,1.79-1A28.885,28.885,0,0,1,21.33,3.5c1.23-.5,2.37-.92,3.61-1.32S27.6,1.37,29,1,31.85.34,33.3.05c.56-.12.58-.12.57.3A5,5,0,0,0,34,1.86a8.2,8.2,0,0,0,.86,1.94c.18.25.33.51.51.76A19,19,0,0,0,37,6.33c.64.65,1.39,1.25,2,1.92a3.78,3.78,0,0,1,.85,1.06A1.69,1.69,0,0,1,39.67,11a8.75,8.75,0,0,1-1,1.06A10.26,10.26,0,0,1,37,13.3c-.21.13-.41.26-.64.38-.66.36-1.33.71-2,1.06-.44.21-.91.41-1.35.64a.22.22,0,0,1-.18,0c0-.07.07-.13.13-.18.36-.36.69-.74,1.07-1.08a9.74,9.74,0,0,0,1.76-2.37,4.56,4.56,0,0,0,.65-2.36,3.49,3.49,0,0,0-.39-1.65,7.12,7.12,0,0,0-.57-.86c-.43-.54-.83-1.1-1.2-1.67l-.05-.08c-.26-.31-.26-.31-.74-.2-1.53.36-3.06.71-4.55,1.14-1,.3-2.07.61-3.07.94a42.3,42.3,0,0,0-4.13,1.65c-1.12.51-2.19,1.06-3.24,1.64-.72.4-1.35.86-2,1.3a23,23,0,0,0-1.82,1.44,13.83,13.83,0,0,0-1.91,2A10.84,10.84,0,0,0,11,18a5.54,5.54,0,0,0-.45,1c-.11.55-.22,1.09-.3,1.64a8,8,0,0,0,0,1.76,11,11,0,0,0,.33,2.13c.06.24.08.26.46.23,1.2-.09,2.4-.06,3.6-.05a14.34,14.34,0,0,1,3.05.41,9.91,9.91,0,0,1,2.24.84,7.21,7.21,0,0,1,1.39,1,4.51,4.51,0,0,1,1.59,2.75,2.92,2.92,0,0,0,.17.88,12.87,12.87,0,0,0,1.32-1.72,7.61,7.61,0,0,1,.88-1.15,5.54,5.54,0,0,0,.55-.75c.29-.4.54-.82.87-1.2.72-.85,1.25-1.77,2-2.62s1.1-1.51,1.67-2.26a2.35,2.35,0,0,1,.3-.33c.12-.1.07-.17-.12-.19a1.92,1.92,0,0,0-.24,0c-1,0-1.95,0-2.92-.08-1.17-.07-2.34-.08-3.51-.15-.56,0-1.11,0-1.67.05a24.5,24.5,0,0,0-3.92.34A19.081,19.081,0,0,0,16.2,21a3.58,3.58,0,0,0-.78.33,6.91,6.91,0,0,0-1.33.8.18.18,0,0,1-.16,0c-.08-.07,0-.15,0-.22a4.11,4.11,0,0,1,.42-1,6,6,0,0,1,1.6-1.79A7.22,7.22,0,0,1,19.26,18a16.64,16.64,0,0,1,2.91,0,38.81,38.81,0,0,1,4.55.6c1.07.21,2.16.41,3.24.6.36.07.73.1,1.09.17.17,0,.23,0,.29-.11.17-.3.37-.59.51-.88s.3-.33.65-.32a15.83,15.83,0,0,0,3.82-.38,8.89,8.89,0,0,0,2.85-1,.09.09,0,0,1,.07,0,.14.14,0,0,1,.09,0,13.07,13.07,0,0,0-2.69,3,.28.28,0,0,0,.25,0,3.75,3.75,0,0,0,2.4-1.44c.11-.17.33-.29.42-.51.15.13.07.22,0,.3a2.81,2.81,0,0,1-2,1.86,10,10,0,0,1-1.3.36.52.52,0,0,0-.35.21A27.63,27.63,0,0,0,34.32,23c-.71,1-1.18,2.18-1.89,3.23s-1.1,1.94-1.77,2.87-1.05,1.71-1.73,2.51S27.79,33.25,27.08,34a19.4,19.4,0,0,1-1.79,1.84c-.52.43-1,.91-1.56,1.31a23.27,23.27,0,0,1-2,1.37c-.55.31-1.1.63-1.69.9a21,21,0,0,1-3.52,1.31,21.54,21.54,0,0,1-3.29.56,26.15,26.15,0,0,1-3.31.1,18.71,18.71,0,0,1-4.76-.65,9.441,9.441,0,0,1-.89-.32,12.22,12.22,0,0,1-1.88-.94A4.68,4.68,0,0,1,.2,36.77,2.82,2.82,0,0,1,0,35.59a7.44,7.44,0,0,1,.33-1.14A4,4,0,0,1,1.5,32.69a6,6,0,0,1,2.24-1.27c.36-.1.7-.23,1.07-.31a9.49,9.49,0,0,1,2.71-.21,13.82,13.82,0,0,1,2.64.41.5.5,0,0,1,.3.11Z" fill=""/>
        </g>
      </g>
    </g>
  </g>
</svg>
