<svg xmlns="http://www.w3.org/2000/svg"  viewBox="0 0 100 100" width="100px" height="100px"><path d="M 49.949219 17.001953 A 1.0001 1.0001 0 0 0 49.851562 17.011719 L 29.851562 20.011719 A 1.0001 1.0001 0 0 0 29.199219 20.400391 L 14.199219 40.400391 A 1.0001 1.0001 0 0 0 14.240234 41.648438 L 49.240234 82.648438 A 1.0001 1.0001 0 0 0 50.765625 82.644531 L 85.765625 41.113281 A 1.0001 1.0001 0 0 0 85.792969 39.859375 L 70.792969 20.390625 A 1.0001 1.0001 0 0 0 70.148438 20.011719 L 50.148438 17.011719 A 1.0001 1.0001 0 0 0 49.949219 17.001953 z M 50.009766 19.195312 L 69.847656 39.96875 L 30.154297 39.96875 L 50.009766 19.195312 z M 48.601562 19.220703 L 29.554688 39.148438 L 30.445312 22.074219 L 30.554688 21.927734 L 48.601562 19.220703 z M 51.419922 19.224609 L 69.453125 21.927734 L 69.554688 22.058594 L 70.445312 39.148438 L 51.419922 19.224609 z M 70.628906 23.453125 L 83.353516 39.96875 L 71.488281 39.96875 L 70.628906 23.453125 z M 29.367188 23.509766 L 28.511719 39.96875 L 17.023438 39.96875 L 29.367188 23.509766 z M 16.289062 40.96875 L 28.677734 40.96875 L 46.714844 76.613281 L 16.289062 40.96875 z M 29.798828 40.96875 L 70.203125 40.96875 L 50.5625 79.779297 L 49.994141 80.455078 L 49.464844 79.835938 L 29.798828 40.96875 z M 71.322266 40.96875 L 83.271484 40.96875 L 53.365234 76.455078 L 71.322266 40.96875 z"/></svg>